<?xml version="1.0" encoding="utf-8"?>
<!-- Generator: Adobe Illustrator 16.0.0, SVG Export Plug-In . SVG Version: 6.00 Build 0)  -->
<!DOCTYPE svg PUBLIC "-//W3C//DTD SVG 1.1//EN" "http://www.w3.org/Graphics/SVG/1.1/DTD/svg11.dtd">
<svg version="1.1" id="Camada_1" xmlns="http://www.w3.org/2000/svg" xmlns:xlink="http://www.w3.org/1999/xlink" x="0px" y="0px"
	 width="323.667px" height="161.333px" viewBox="0 0 323.667 161.333" enable-background="new 0 0 323.667 161.333"
	 xml:space="preserve">
<g>
	<path fill="#FFFFFF" d="M310.264,33.035l6.199-1.766c-4.676-19.036-22.117-25.936-37.367-25.936
		c-20.914,0-37.299,15.03-37.299,34.216c0,15.984,10.924,28.03,28.529,31.442l12.994,2.441c2.277,0.441,7.574,1.951,7.574,6.431
		c0,4.998-5.264,6.779-10.188,6.779c-12.889,0-15.779-8.318-16.408-12.736l-6.244,1.777c1.564,8.799,8.174,17.491,22.652,17.491
		c9.955,0,16.641-5.351,16.641-13.312c0-6.392-4.908-11.313-12.834-12.849l-12.992-2.441c-14.572-2.824-23.271-12.179-23.271-25.024
		c0-15.523,13.549-27.684,30.846-27.684C302.238,11.865,308.57,26.335,310.264,33.035L310.264,33.035z M244.977,79.409l-6.252,1.781
		c2.816,15.844,16.398,30.985,41.713,30.985c24.926,0,38.373-17.349,38.373-33.671c0-16.33-11.547-28.64-30.125-32.121
		l-12.762-2.447c-6.744-1.254-6.744-4.713-6.744-6.017c0-3.465,3.658-7.05,9.783-7.05c8.443,0,11.281,4.66,12.23,7.597l6.217-1.772
		c-1.896-6.159-7.533-12.356-18.447-12.356c-10.164,0-16.238,6.905-16.238,13.581c0,3.81,1.563,10.494,12.016,12.437l12.756,2.446
		c15.566,2.917,24.861,12.525,24.861,25.702c0,17.628-16.445,27.14-31.92,27.14C255.756,105.645,246.707,89.867,244.977,79.409
		L244.977,79.409z M216.564,109.422h6.889L186.006,6.35h-29.019l-37.949,103.072h6.897l14.058-38.399h14.918h32.185h15.598
		L216.564,109.422L216.564,109.422z M164.057,64.96l7.064-20.131l6.902,20.131H164.057L164.057,64.96z M200.504,64.96h-15.488
		l-13.824-40.316L157.04,64.96h-14.828l19.238-52.547h20.073L200.504,64.96L200.504,64.96z M59.593,105.645
		c-26.735,0-46.139-19.634-46.139-46.687c0-26.849,19.72-47.093,45.87-47.093c32.226,0,39.745,24.031,41.052,29.604l6.202-1.767
		C102.752,23.701,88.195,5.333,59.324,5.333C29.495,5.333,7,28.387,7,58.958c0,30.837,22.121,53.218,52.593,53.218
		c28.715,0,43.642-18.469,47.988-34.847l-6.21-1.769C97.659,89.681,84.686,105.645,59.593,105.645L59.593,105.645z M35.456,58.958
		c0-17.993,12.374-26.189,23.868-26.189c15.243,0,19.69,10.091,20.896,14.439l6.206-1.766C83.82,35.93,75.488,26.237,59.324,26.237
		C44.256,26.237,29,37.475,29,58.958c0,20.858,15.393,31.771,30.593,31.771c15.891,0,24.602-9.684,27.674-19.187l-6.217-1.77
		c-1.558,4.567-6.637,14.426-21.457,14.426C47.597,84.199,35.456,75.528,35.456,58.958L35.456,58.958z M150.242,85.17l-8.957,24.252
		h6.856l6.638-18.189h32.205l6.574,18.189h6.855l-8.867-24.252H150.242L150.242,85.17z"/>
	<path fill="#FFFFFF" d="M14.261,153.239c0,0.253,0.203,0.48,0.482,0.48h2.333c0.253,0,0.481-0.228,0.481-0.48v-5.959h3.17
		c3.093,0,5.654-2.562,5.654-5.705c0-3.068-2.561-5.604-5.68-5.604h-5.958c-0.279,0-0.482,0.229-0.482,0.482V153.239L14.261,153.239
		z M17.557,144.187v-5.096H20.6c1.42,0,2.51,1.064,2.51,2.459c0,1.496-1.09,2.637-2.51,2.637H17.557L17.557,144.187z
		 M46.436,153.239c0,0.253,0.203,0.48,0.482,0.48h9.28c0.278,0,0.481-0.228,0.481-0.48v-2.08c0-0.253-0.203-0.481-0.481-0.481
		h-6.466v-14.224c0-0.254-0.228-0.482-0.482-0.482h-2.332c-0.279,0-0.482,0.229-0.482,0.482V153.239L46.436,153.239z
		 M75.898,147.204c0,3.854,3.068,6.77,7.049,6.77c4.006,0,7.074-2.916,7.074-6.77v-10.75c0-0.254-0.229-0.482-0.482-0.482H87.13
		c-0.279,0-0.482,0.229-0.482,0.482v10.598c0,2.13-1.495,3.626-3.701,3.626s-3.677-1.496-3.677-3.651v-10.572
		c0-0.254-0.203-0.482-0.482-0.482H76.38c-0.254,0-0.482,0.229-0.482,0.482V147.204L75.898,147.204z M116.237,153.974
		c3.575,0,5.832-2.409,5.832-5.02c0-3.271-2.84-4.742-5.299-5.731c-2.054-0.836-2.992-1.647-2.992-2.839
		c0-0.964,0.786-1.775,2.231-1.775c1.395,0,2.434,0.711,3.524,1.395c0.305,0.203,0.685,0,0.888-0.304l0.963-1.445
		c0.178-0.254,0.102-0.685-0.152-0.837c-0.507-0.38-2.485-1.699-5.071-1.699c-4.031,0-5.705,2.612-5.705,4.868
		c0,2.992,2.384,4.514,4.767,5.477c2.13,0.862,3.22,1.75,3.22,3.043c0,1.091-0.989,1.952-2.307,1.952
		c-1.648,0-2.789-0.786-3.829-1.572c-0.228-0.177-0.659-0.177-0.862,0.179l-0.913,1.571c-0.228,0.405-0.126,0.558,0.127,0.761
		C111.394,152.63,113.043,153.974,116.237,153.974L116.237,153.974z M167.891,153.619c0.051,0.203,0.254,0.354,0.457,0.354h0.406
		c0.252,0,0.354-0.127,0.43-0.279l4.488-11.485h0.127l4.539,11.485c0.051,0.152,0.203,0.279,0.43,0.279h0.406
		c0.203,0,0.406-0.151,0.457-0.354l4.791-17.039c0.102-0.355-0.102-0.608-0.455-0.608h-2.334c-0.203,0-0.406,0.177-0.455,0.355
		l-2.588,10.115h-0.102l-4.057-10.445c-0.051-0.152-0.176-0.279-0.43-0.279h-0.457c-0.254,0-0.381,0.127-0.432,0.279l-4.031,10.445
		h-0.102l-2.637-10.115c-0.051-0.179-0.254-0.355-0.455-0.355h-2.334c-0.354,0-0.557,0.253-0.455,0.608L167.891,153.619
		L167.891,153.619z M201.814,153.72h2.207c0.406,0,0.633-0.253,0.734-0.507l1.244-2.738h7.58l1.242,2.738
		c0.178,0.354,0.355,0.507,0.736,0.507h2.205c0.381,0,0.584-0.329,0.432-0.659l-7.811-17.063c-0.076-0.152-0.176-0.279-0.43-0.279
		h-0.254c-0.229,0-0.355,0.127-0.432,0.279l-7.885,17.063C201.232,153.391,201.436,153.72,201.814,153.72L201.814,153.72z
		 M207.242,147.66l2.484-5.578h0.076l2.535,5.578H207.242L207.242,147.66z M239.391,153.239c0,0.253,0.229,0.48,0.482,0.48h2.357
		c0.254,0,0.482-0.228,0.482-0.48v-14.226h3.879c0.279,0,0.482-0.228,0.482-0.48v-2.079c0-0.254-0.203-0.482-0.482-0.482h-11.08
		c-0.279,0-0.482,0.229-0.482,0.482v2.079c0,0.253,0.203,0.48,0.482,0.48h3.879V153.239L239.391,153.239z M267.129,153.239
		c0,0.253,0.203,0.48,0.482,0.48h10.318c0.279,0,0.482-0.228,0.482-0.48v-2.08c0-0.253-0.203-0.481-0.482-0.481h-7.504v-4.437h6.262
		c0.254,0,0.482-0.203,0.482-0.482v-2.105c0-0.253-0.229-0.48-0.482-0.48h-6.262v-4.159h7.504c0.279,0,0.482-0.228,0.482-0.48
		v-2.079c0-0.254-0.203-0.482-0.482-0.482h-10.318c-0.279,0-0.482,0.229-0.482,0.482V153.239L267.129,153.239z M298.975,153.239
		c0,0.253,0.203,0.48,0.482,0.48h2.332c0.254,0,0.48-0.228,0.48-0.48v-6.467h2.814l3.373,6.72c0.051,0.102,0.178,0.228,0.404,0.228
		h2.664c0.432,0,0.607-0.405,0.432-0.735l-3.475-6.439c2.205-0.888,3.752-2.789,3.752-5.122c0-3.017-2.484-5.451-5.527-5.451h-7.25
		c-0.279,0-0.482,0.229-0.482,0.482V153.239L298.975,153.239z M302.295,144.06v-5.046h4.133c1.344,0,2.51,1.116,2.51,2.46
		c0,1.42-1.166,2.586-2.51,2.586H302.295L302.295,144.06z"/>
</g>
</svg>
