<svg id="Layer_1" data-name="Layer 1" xmlns="http://www.w3.org/2000/svg" viewBox="0 0 84.22 28.86"><title>logo-cas</title><path d="M81.91,7.48L83.58,7c-1.26-5.14-6-7-10.09-7C67.84,0,63.42,4.06,63.42,9.24c0,4.32,3,7.57,7.71,8.49l3.51,0.66c0.62,0.12,2,.53,2,1.74S75.25,22,73.92,22c-3.48,0-4.26-2.25-4.43-3.44L67.81,19c0.42,2.38,2.21,4.72,6.12,4.72,2.69,0,4.49-1.45,4.49-3.6,0-1.73-1.33-3.06-3.47-3.47L71.44,16c-3.94-.76-6.29-3.29-6.29-6.76,0-4.19,3.66-7.48,8.33-7.48,6.25,0,8,3.91,8.42,5.72h0ZM64.27,20l-1.69.48c0.76,4.28,4.43,8.37,11.27,8.37s10.36-4.69,10.36-9.09S81.1,12,76.08,11.09l-3.45-.66c-1.82-.34-1.82-1.27-1.82-1.63,0-.94,1-1.9,2.64-1.9,2.28,0,3,1.26,3.3,2.05l1.68-.48a4.83,4.83,0,0,0-5-3.34c-2.75,0-4.39,1.86-4.39,3.67,0,1,.42,2.83,3.24,3.36l3.45,0.66c4.2,0.79,6.71,3.38,6.71,6.94,0,4.76-4.44,7.33-8.62,7.33-6.67,0-9.11-4.26-9.58-7.09h0ZM56.6,28.11h1.86L48.35,0.27H40.51L30.26,28.11h1.86l3.8-10.37H52.85L56.6,28.11h0Zm-14.18-12,1.91-5.44,1.86,5.44H42.42Zm9.84,0H48.08L44.35,5.22,40.52,16.1h-4l5.2-14.19h5.42L52.26,16.1h0Zm-38.06,11C7,27.09,1.74,21.79,1.74,14.48S7.07,1.76,14.13,1.76c8.7,0,10.73,6.49,11.09,8l1.68-.48C25.86,5,21.93,0,14.13,0,6.08,0,0,6.23,0,14.48S6,28.86,14.2,28.86c7.76,0,11.79-5,13-9.41L25.49,19c-1,3.81-4.51,8.13-11.28,8.13h0ZM7.69,14.48c0-4.86,3.34-7.07,6.45-7.07,4.12,0,5.32,2.73,5.64,3.9l1.68-.48c-0.7-2.57-3-5.19-7.32-5.19-4.07,0-8.19,3-8.19,8.84a8.15,8.15,0,0,0,8.26,8.58,7.45,7.45,0,0,0,7.47-5.18L20,17.4a5.69,5.69,0,0,1-5.8,3.9,6.45,6.45,0,0,1-6.52-6.82h0Zm31,7.08-2.42,6.55h1.85l1.79-4.91h8.7l1.78,4.91h1.85l-2.39-6.55H38.69Z"/></svg>