<svg xmlns="http://www.w3.org/2000/svg" xmlns:xlink="http://www.w3.org/1999/xlink" viewBox="445 1164 375 667">
  <defs>
    <style>
      .cls-1 {
        clip-path: url(#clip-Acompanhamento_Click);
      }

      .cls-2, .cls-8 {
        fill: #ddd;
      }

      .cls-3 {
        fill: none;
      }

      .cls-10, .cls-12, .cls-24, .cls-4 {
        fill: #95989a;
      }

      .cls-4 {
        font-size: 14px;
      }

      .cls-14, .cls-17, .cls-19, .cls-22, .cls-23, .cls-24, .cls-26, .cls-4 {
        font-family: HelveticaNeue, Helvetica Neue;
      }

      .cls-5, .cls-7 {
        opacity: 0.54;
      }

      .cls-6 {
        fill: #010002;
      }

      .cls-13, .cls-25, .cls-7 {
        fill-rule: evenodd;
      }

      .cls-15, .cls-16, .cls-18, .cls-8 {
        stroke: #fff;
      }

      .cls-11, .cls-15, .cls-16, .cls-18, .cls-21, .cls-8 {
        stroke-width: 1px;
      }

      .cls-9 {
        opacity: 0.543;
      }

      .cls-10, .cls-26 {
        font-size: 13px;
      }

      .cls-10, .cls-12 {
        font-family: HelveticaNeue-Medium, Helvetica Neue;
        font-weight: 500;
      }

      .cls-11, .cls-19, .cls-21, .cls-28 {
        fill: #fff;
      }

      .cls-11 {
        stroke: #ddd;
      }

      .cls-12, .cls-14, .cls-24 {
        font-size: 12px;
      }

      .cls-13, .cls-18, .cls-22 {
        fill: #999;
      }

      .cls-14, .cls-23, .cls-26 {
        fill: #666;
      }

      .cls-15 {
        fill: #fafafa;
      }

      .cls-16 {
        fill: #f1f1f1;
      }

      .cls-17 {
        fill: #aaa;
      }

      .cls-17, .cls-19 {
        font-size: 10px;
      }

      .cls-20 {
        opacity: 0.8;
      }

      .cls-21 {
        stroke: #95989a;
      }

      .cls-22, .cls-23 {
        font-size: 15px;
      }

      .cls-25 {
        opacity: 0.544;
      }

      .cls-27 {
        stroke: none;
      }
    </style>
    <clipPath id="clip-Acompanhamento_Click">
      <rect x="445" y="1164" width="375" height="667"/>
    </clipPath>
  </defs>
  <g id="Acompanhamento_Click" data-name="Acompanhamento – Click" class="cls-1">
    <rect class="cls-28" x="445" y="1164" width="375" height="667"/>
    <g id="group-2" transform="translate(445 1164)">
      <rect id="rectangle-1" class="cls-2" width="375" height="58"/>
      <g id="group" transform="translate(15 17)">
        <rect id="rectangle" class="cls-3" width="24" height="24"/>
      </g>
      <g id="group-1" transform="translate(-32 -146)">
        <text id="Logotipo" class="cls-4" transform="translate(162 180)"><tspan x="0" y="0">Acompanhamento</tspan></text>
      </g>
      <g id="small-calendar" transform="translate(338 19)">
        <g id="calendar_1_" class="cls-5" transform="translate(2)">
          <path id="path" class="cls-6" d="M18.334,1.875H15.625V.625a.625.625,0,0,0-1.25,0v1.25h-3.75V.625a.625.625,0,0,0-1.25,0v1.25H5.625V.625a.625.625,0,0,0-1.25,0v1.25H1.667A1.666,1.666,0,0,0,0,3.541V18.333A1.667,1.667,0,0,0,1.667,20H18.334A1.666,1.666,0,0,0,20,18.333V3.541A1.666,1.666,0,0,0,18.334,1.875Zm.416,16.458a.417.417,0,0,1-.416.417H1.667a.417.417,0,0,1-.417-.417V3.541a.417.417,0,0,1,.417-.416H4.375v1.25a.625.625,0,0,0,1.25,0V3.125h3.75v1.25a.625.625,0,0,0,1.25,0V3.125h3.75v1.25a.625.625,0,0,0,1.25,0V3.125h2.709a.417.417,0,0,1,.416.416Z"/>
          <rect id="rectangle-2" data-name="rectangle" class="cls-6" width="2.5" height="1.875" transform="translate(4.375 7.5)"/>
          <rect id="rectangle-3" data-name="rectangle" class="cls-6" width="2.5" height="1.875" transform="translate(4.375 10.625)"/>
          <rect id="rectangle-4" data-name="rectangle" class="cls-6" width="2.5" height="1.875" transform="translate(4.375 13.75)"/>
          <rect id="rectangle-5" data-name="rectangle" class="cls-6" width="2.5" height="1.875" transform="translate(8.75 13.75)"/>
          <rect id="rectangle-6" data-name="rectangle" class="cls-6" width="2.5" height="1.875" transform="translate(8.75 10.625)"/>
          <rect id="rectangle-7" data-name="rectangle" class="cls-6" width="2.5" height="1.875" transform="translate(8.75 7.5)"/>
          <rect id="rectangle-8" data-name="rectangle" class="cls-6" width="2.5" height="1.875" transform="translate(13.125 13.75)"/>
          <rect id="rectangle-9" data-name="rectangle" class="cls-6" width="2.5" height="1.875" transform="translate(13.125 10.625)"/>
          <rect id="rectangle-10" data-name="rectangle" class="cls-6" width="2.5" height="1.875" transform="translate(13.125 7.5)"/>
        </g>
      </g>
      <g id="group-2-2" data-name="group" transform="translate(15 17)">
        <path id="path-2" data-name="path" class="cls-7" d="M15.4,7.4,14,6,8,12l6,6,1.4-1.4L10.8,12Z"/>
        <rect id="rectangle-11" data-name="rectangle" class="cls-3" width="24" height="24"/>
      </g>
    </g>
    <g id="group-3" transform="translate(445 1164)">
      <g id="rectangle-1-2" data-name="rectangle-1" class="cls-8" transform="translate(-3 617.453)">
        <rect class="cls-27" width="95.804" height="50.547"/>
        <rect class="cls-3" x="0.5" y="0.5" width="94.804" height="49.547"/>
      </g>
      <g id="rectangle-1-3" data-name="rectangle-1" class="cls-8" transform="translate(92 617.453)">
        <rect class="cls-27" width="95.804" height="50.547"/>
        <rect class="cls-3" x="0.5" y="0.5" width="94.804" height="49.547"/>
      </g>
      <g id="rectangle-1-4" data-name="rectangle-1" class="cls-8" transform="translate(186 617.453)">
        <rect class="cls-27" width="95.804" height="50.547"/>
        <rect class="cls-3" x="0.5" y="0.5" width="94.804" height="49.547"/>
      </g>
      <g id="rectangle-1-5" data-name="rectangle-1" class="cls-8" transform="translate(280 617)">
        <rect class="cls-27" width="95.804" height="50.547"/>
        <rect class="cls-3" x="0.5" y="0.5" width="94.804" height="49.547"/>
      </g>
      <g id="elemental-tip" class="cls-9" transform="translate(109.913 631.001)">
        <g id="group-3-2" data-name="group" transform="translate(19.087 -0.001)">
          <g id="group-4" data-name="group" transform="translate(0)">
            <path id="path-3" data-name="path" d="M100.132,23.6a8.149,8.149,0,0,0-3.667,15.427v4.855A2.128,2.128,0,0,0,98.59,46h3.084a2.128,2.128,0,0,0,2.125-2.125V39.023A8.149,8.149,0,0,0,100.132,23.6Zm.634,14.889c-.209.019-.42.03-.634.03s-.425-.01-.634-.03a10.387,10.387,0,0,0-.646-4.34h2.56A10.391,10.391,0,0,0,100.766,38.485Zm1.652,3.983H97.846v-2.9a8.158,8.158,0,0,0,4.572,0Zm0,1.41a.745.745,0,0,1-.744.744H98.59a.745.745,0,0,1-.744-.744v-.029h4.572Zm-.278-5.667a7.575,7.575,0,0,1,1-4.356.691.691,0,0,0-.562-1.092H97.687a.691.691,0,0,0-.562,1.092,7.576,7.576,0,0,1,1,4.356,6.769,6.769,0,1,1,4.015,0Z" transform="translate(-89.206 -22.697)"/>
            <path id="path-4" data-name="path" d="M21.086,2.977A.691.691,0,0,0,22.063,2L20.266.2a.691.691,0,0,0-.977.977Z" transform="translate(-19.087 0)"/>
            <path id="path-5" data-name="path" d="M510.133,3.178a.689.689,0,0,0,.489-.2l1.8-1.8A.691.691,0,0,0,511.441.2l-1.8,1.8a.691.691,0,0,0,.488,1.179Z" transform="translate(-490.768 0.001)"/>
            <path id="path-6" data-name="path" d="M510.622,391.966a.691.691,0,1,0-.977.977l1.8,1.8a.691.691,0,0,0,.977-.977Z" transform="translate(-490.769 -376.844)"/>
            <path id="path-7" data-name="path" d="M21.086,391.965l-1.8,1.8a.691.691,0,1,0,.977.977l1.8-1.8a.691.691,0,0,0-.977-.977Z" transform="translate(-19.087 -376.843)"/>
          </g>
        </g>
      </g>
      <g id="check" class="cls-9" transform="translate(260.092 631)">
        <g id="group-5" data-name="group" transform="translate(58.908)">
          <g id="group-6" data-name="group" transform="translate(0)">
            <path id="path-8" data-name="path" d="M75.864,34.738H72.179l.249,1.151a1.318,1.318,0,0,1,.013.427h2.635v18.6H60.484v-18.6H63.12a1.329,1.329,0,0,1,.014-.429l.249-1.149H59.7a.788.788,0,0,0-.788.789V55.7a.789.789,0,0,0,.788.789H75.864a.789.789,0,0,0,.789-.789V35.527A.789.789,0,0,0,75.864,34.738Z" transform="translate(-58.908 -33.062)"/>
            <path id="path-9" data-name="path" d="M233.681,152.949h-5.389a.789.789,0,1,0,0,1.577h5.389a.789.789,0,1,0,0-1.577Z" transform="translate(-219.37 -145.571)"/>
            <path id="path-10" data-name="path" d="M233.681,253.254h-5.389a.789.789,0,0,0,0,1.578h5.389a.789.789,0,0,0,0-1.578Z" transform="translate(-219.37 -241.038)"/>
            <path id="path-11" data-name="path" d="M114.024,113.894a.789.789,0,0,0-.095,1.112l1.151,1.364a.787.787,0,0,0,.6.28l.058,0a.788.788,0,0,0,.613-.372l2.07-3.351a.788.788,0,0,0-1.341-.829l-1.5,2.425-.449-.531A.787.787,0,0,0,114.024,113.894Z" transform="translate(-111.099 -106.331)"/>
            <path id="path-12" data-name="path" d="M135.368,245.094a1.183,1.183,0,1,0,1.183,1.183A1.183,1.183,0,0,0,135.368,245.094Z" transform="translate(-130.554 -233.271)"/>
            <path id="path-13" data-name="path" d="M233.681,351.359h-5.389a.789.789,0,1,0,0,1.577h5.389a.789.789,0,1,0,0-1.577Z" transform="translate(-219.37 -334.41)"/>
            <path id="path-14" data-name="path" d="M135.368,343.2a1.183,1.183,0,1,0,1.183,1.183A1.183,1.183,0,0,0,135.368,343.2Z" transform="translate(-130.554 -326.644)"/>
            <path id="path-15" data-name="path" d="M162.785,3.647h6.692a.541.541,0,0,0,.529-.656L169.453.427a.542.542,0,0,0-.53-.427H163.34a.542.542,0,0,0-.53.427l-.555,2.564a.547.547,0,0,0,.108.455A.54.54,0,0,0,162.785,3.647Z" transform="translate(-157.26)"/>
          </g>
        </g>
      </g>
      <g id="info" class="cls-9" transform="translate(215.6 624.4)">
        <g id="group-7" data-name="group" transform="translate(6.4 6.6)">
          <path id="path-16" data-name="path" d="M18.124,30.028A11.714,11.714,0,1,0,6.4,18.314,11.718,11.718,0,0,0,18.124,30.028Zm0-21.813A10.078,10.078,0,1,1,8.055,18.294,10.089,10.089,0,0,1,18.124,8.216Z" transform="translate(-6.4 -6.6)"/>
          <path id="path-17" data-name="path" d="M51.527,58.019a.828.828,0,0,0,0,1.656h5.428a.828.828,0,0,0,0-1.656h-1.9V50.728a.819.819,0,0,0-.827-.828h-2.7a.828.828,0,0,0,0,1.656h1.9v6.463Z" transform="translate(-41.76 -41.155)"/>
          <ellipse id="ellipse" cx="1.332" cy="1.333" rx="1.332" ry="1.333" transform="translate(10.029 4.706)"/>
        </g>
      </g>
      <g id="little-home" class="cls-9" transform="translate(-1449.55 587.352)">
        <g id="group-8" data-name="group" transform="translate(1480.55 43.648)">
          <path id="path-18" data-name="path" d="M26.934,52.48l-3.226-2.208v-5.65a.789.789,0,0,0-.789-.789H19.076a.789.789,0,0,0-.789.789v1.939l-4.2-2.876a.789.789,0,0,0-.9,0L.344,52.48a.789.789,0,1,0,.891,1.3l2.334-1.6V66.152a.789.789,0,0,0,.789.789h18.56a.789.789,0,0,0,.789-.789V52.184l2.334,1.6a.789.789,0,0,0,.892-1.3ZM15.277,65.363H12V57.69h3.276Zm6.853,0H16.855V56.9a.789.789,0,0,0-.789-.789H11.212a.789.789,0,0,0-.789.789v8.462H5.148V51.1l8.491-5.811L22.13,51.1V65.363h0Zm0-16.171-2.265-1.55v-2.23H22.13Z" transform="translate(0 -43.545)"/>
        </g>
      </g>
    </g>
    <text id="Women_who_seek_" data-name="Women who seek " class="cls-10" transform="translate(463 1246)"><tspan x="0" y="13">Texto descritivo sobre a função dessa página e como ela </tspan><tspan x="0" y="36">pode ajudar o usuario a se localizar nos conteudos.</tspan></text>
    <g id="rectangle-16" class="cls-11" transform="translate(445 1317)">
      <rect class="cls-27" width="375" height="40"/>
      <rect class="cls-3" x="0.5" y="0.5" width="374" height="39"/>
    </g>
    <text id="Outubro_2016" data-name="Outubro 2016" class="cls-12" transform="translate(634 1342)"><tspan x="-37.686" y="0">Outubro 2016</tspan></text>
    <path id="path-19" data-name="path" class="cls-13" d="M15.4,7.4,14,6,8,12l6,6,1.4-1.4L10.8,12Z" transform="translate(465 1325)"/>
    <path id="path-20" data-name="path" class="cls-13" d="M15.4,7.4,14,6,8,12l6,6,1.4-1.4L10.8,12Z" transform="translate(803.4 1349) rotate(180)"/>
    <text id="D" class="cls-14" transform="translate(473 1381)"><tspan x="18.805" y="11">D</tspan></text>
    <text id="D-2" data-name="D" class="cls-14" transform="translate(519.057 1381)"><tspan x="19.141" y="11">S</tspan></text>
    <text id="D-3" data-name="D" class="cls-14" transform="translate(565.114 1381)"><tspan x="19.585" y="11">T</tspan></text>
    <text id="D-4" data-name="D" class="cls-14" transform="translate(611.171 1381)"><tspan x="18.469" y="11">Q</tspan></text>
    <text id="D-5" data-name="D" class="cls-14" transform="translate(657.229 1381)"><tspan x="18.469" y="11">Q</tspan></text>
    <text id="D-6" data-name="D" class="cls-14" transform="translate(703.286 1381)"><tspan x="19.141" y="11">S</tspan></text>
    <text id="D-7" data-name="D" class="cls-14" transform="translate(749.343 1381)"><tspan x="19.141" y="11">S</tspan></text>
    <g id="rectangle-18" class="cls-15" transform="translate(473 1409)">
      <rect class="cls-27" width="46" height="46"/>
      <rect class="cls-3" x="0.5" y="0.5" width="45" height="45"/>
    </g>
    <g id="rectangle-18-2" data-name="rectangle-18" class="cls-15" transform="translate(519 1409)">
      <rect class="cls-27" width="46" height="46"/>
      <rect class="cls-3" x="0.5" y="0.5" width="45" height="45"/>
    </g>
    <g id="rectangle-18-3" data-name="rectangle-18" class="cls-15" transform="translate(565 1409)">
      <rect class="cls-27" width="46" height="46"/>
      <rect class="cls-3" x="0.5" y="0.5" width="45" height="45"/>
    </g>
    <g id="rectangle-18-4" data-name="rectangle-18" class="cls-15" transform="translate(611 1409)">
      <rect class="cls-27" width="46" height="46"/>
      <rect class="cls-3" x="0.5" y="0.5" width="45" height="45"/>
    </g>
    <g id="rectangle-18-5" data-name="rectangle-18" class="cls-16" transform="translate(657 1409)">
      <rect class="cls-27" width="46" height="46"/>
      <rect class="cls-3" x="0.5" y="0.5" width="45" height="45"/>
    </g>
    <g id="rectangle-18-6" data-name="rectangle-18" class="cls-16" transform="translate(703 1409)">
      <rect class="cls-27" width="46" height="46"/>
      <rect class="cls-3" x="0.5" y="0.5" width="45" height="45"/>
    </g>
    <g id="rectangle-18-7" data-name="rectangle-18" class="cls-16" transform="translate(749 1409)">
      <rect class="cls-27" width="46" height="46"/>
      <rect class="cls-3" x="0.5" y="0.5" width="45" height="45"/>
    </g>
    <text id="D-8" data-name="D" class="cls-17" transform="translate(473 1426)"><tspan x="17.469" y="10">28</tspan></text>
    <text id="D-9" data-name="D" class="cls-17" transform="translate(519 1426)"><tspan x="17.469" y="10">29</tspan></text>
    <text id="D-10" data-name="D" class="cls-17" transform="translate(565 1426)"><tspan x="17.469" y="10">30</tspan></text>
    <text id="D-11" data-name="D" class="cls-17" transform="translate(611 1426)"><tspan x="17.469" y="10">31</tspan></text>
    <text id="D-12" data-name="D" class="cls-17" transform="translate(657 1426)"><tspan x="20.249" y="10">1</tspan></text>
    <text id="D-13" data-name="D" class="cls-17" transform="translate(703 1426)"><tspan x="20.249" y="10">2</tspan></text>
    <text id="D-14" data-name="D" class="cls-17" transform="translate(749 1426)"><tspan x="20.249" y="10">3</tspan></text>
    <g id="rectangle-18-8" data-name="rectangle-18" class="cls-16" transform="translate(473 1455)">
      <rect class="cls-27" width="46" height="46"/>
      <rect class="cls-3" x="0.5" y="0.5" width="45" height="45"/>
    </g>
    <g id="rectangle-18-9" data-name="rectangle-18" class="cls-16" transform="translate(519 1455)">
      <rect class="cls-27" width="46" height="46"/>
      <rect class="cls-3" x="0.5" y="0.5" width="45" height="45"/>
    </g>
    <g id="rectangle-18-10" data-name="rectangle-18" class="cls-16" transform="translate(565 1455)">
      <rect class="cls-27" width="46" height="46"/>
      <rect class="cls-3" x="0.5" y="0.5" width="45" height="45"/>
    </g>
    <g id="rectangle-18-11" data-name="rectangle-18" class="cls-16" transform="translate(611 1455)">
      <rect class="cls-27" width="46" height="46"/>
      <rect class="cls-3" x="0.5" y="0.5" width="45" height="45"/>
    </g>
    <g id="rectangle-18-12" data-name="rectangle-18" class="cls-16" transform="translate(657 1455)">
      <rect class="cls-27" width="46" height="46"/>
      <rect class="cls-3" x="0.5" y="0.5" width="45" height="45"/>
    </g>
    <g id="rectangle-18-13" data-name="rectangle-18" class="cls-16" transform="translate(703 1455)">
      <rect class="cls-27" width="46" height="46"/>
      <rect class="cls-3" x="0.5" y="0.5" width="45" height="45"/>
    </g>
    <g id="rectangle-18-14" data-name="rectangle-18" class="cls-18" transform="translate(749 1455)">
      <rect class="cls-27" width="46" height="46"/>
      <rect class="cls-3" x="0.5" y="0.5" width="45" height="45"/>
    </g>
    <text id="D-15" data-name="D" class="cls-17" transform="translate(473 1472)"><tspan x="20.249" y="10">4</tspan></text>
    <text id="D-16" data-name="D" class="cls-17" transform="translate(519 1472)"><tspan x="20.249" y="10">5</tspan></text>
    <text id="D-17" data-name="D" class="cls-17" transform="translate(565 1472)"><tspan x="20.249" y="10">6</tspan></text>
    <text id="D-18" data-name="D" class="cls-17" transform="translate(611 1472)"><tspan x="20.249" y="10">7</tspan></text>
    <text id="D-19" data-name="D" class="cls-17" transform="translate(657 1472)"><tspan x="20.249" y="10">8</tspan></text>
    <text id="D-20" data-name="D" class="cls-17" transform="translate(703 1472)"><tspan x="20.249" y="10">9</tspan></text>
    <text id="D-21" data-name="D" class="cls-19" transform="translate(749 1472)"><tspan x="17.469" y="10">10</tspan></text>
    <g id="rectangle-18-15" data-name="rectangle-18" class="cls-16" transform="translate(473 1501)">
      <rect class="cls-27" width="46" height="46"/>
      <rect class="cls-3" x="0.5" y="0.5" width="45" height="45"/>
    </g>
    <g id="rectangle-18-16" data-name="rectangle-18" class="cls-18" transform="translate(519 1501)">
      <rect class="cls-27" width="46" height="46"/>
      <rect class="cls-3" x="0.5" y="0.5" width="45" height="45"/>
    </g>
    <g id="rectangle-18-17" data-name="rectangle-18" class="cls-16" transform="translate(565 1501)">
      <rect class="cls-27" width="46" height="46"/>
      <rect class="cls-3" x="0.5" y="0.5" width="45" height="45"/>
    </g>
    <g id="rectangle-18-18" data-name="rectangle-18" class="cls-16" transform="translate(611 1501)">
      <rect class="cls-27" width="46" height="46"/>
      <rect class="cls-3" x="0.5" y="0.5" width="45" height="45"/>
    </g>
    <g id="rectangle-18-19" data-name="rectangle-18" class="cls-18" transform="translate(657 1501)">
      <rect class="cls-27" width="46" height="46"/>
      <rect class="cls-3" x="0.5" y="0.5" width="45" height="45"/>
    </g>
    <g id="rectangle-18-20" data-name="rectangle-18" class="cls-16" transform="translate(703 1501)">
      <rect class="cls-27" width="46" height="46"/>
      <rect class="cls-3" x="0.5" y="0.5" width="45" height="45"/>
    </g>
    <g id="rectangle-18-21" data-name="rectangle-18" class="cls-16" transform="translate(749 1501)">
      <rect class="cls-27" width="46" height="46"/>
      <rect class="cls-3" x="0.5" y="0.5" width="45" height="45"/>
    </g>
    <text id="D-22" data-name="D" class="cls-17" transform="translate(473 1518)"><tspan x="17.469" y="10">11</tspan></text>
    <text id="D-23" data-name="D" class="cls-19" transform="translate(519 1518)"><tspan x="17.469" y="10">12</tspan></text>
    <text id="D-24" data-name="D" class="cls-17" transform="translate(565 1518)"><tspan x="17.469" y="10">13</tspan></text>
    <text id="D-25" data-name="D" class="cls-17" transform="translate(611 1518)"><tspan x="17.469" y="10">14</tspan></text>
    <text id="D-26" data-name="D" class="cls-19" transform="translate(657 1518)"><tspan x="17.469" y="10">15</tspan></text>
    <text id="D-27" data-name="D" class="cls-17" transform="translate(703 1518)"><tspan x="17.469" y="10">16</tspan></text>
    <text id="D-28" data-name="D" class="cls-17" transform="translate(749 1518)"><tspan x="17.469" y="10">17</tspan></text>
    <g id="rectangle-18-22" data-name="rectangle-18" class="cls-18" transform="translate(473 1547)">
      <rect class="cls-27" width="46" height="46"/>
      <rect class="cls-3" x="0.5" y="0.5" width="45" height="45"/>
    </g>
    <g id="rectangle-18-23" data-name="rectangle-18" class="cls-16" transform="translate(519 1547)">
      <rect class="cls-27" width="46" height="46"/>
      <rect class="cls-3" x="0.5" y="0.5" width="45" height="45"/>
    </g>
    <g id="rectangle-18-24" data-name="rectangle-18" class="cls-16" transform="translate(565 1547)">
      <rect class="cls-27" width="46" height="46"/>
      <rect class="cls-3" x="0.5" y="0.5" width="45" height="45"/>
    </g>
    <g id="rectangle-18-25" data-name="rectangle-18" class="cls-16" transform="translate(611 1547)">
      <rect class="cls-27" width="46" height="46"/>
      <rect class="cls-3" x="0.5" y="0.5" width="45" height="45"/>
    </g>
    <g id="rectangle-18-26" data-name="rectangle-18" class="cls-16" transform="translate(657 1547)">
      <rect class="cls-27" width="46" height="46"/>
      <rect class="cls-3" x="0.5" y="0.5" width="45" height="45"/>
    </g>
    <g id="rectangle-18-27" data-name="rectangle-18" class="cls-18" transform="translate(703 1547)">
      <rect class="cls-27" width="46" height="46"/>
      <rect class="cls-3" x="0.5" y="0.5" width="45" height="45"/>
    </g>
    <g id="rectangle-18-28" data-name="rectangle-18" class="cls-16" transform="translate(749 1547)">
      <rect class="cls-27" width="46" height="46"/>
      <rect class="cls-3" x="0.5" y="0.5" width="45" height="45"/>
    </g>
    <text id="D-29" data-name="D" class="cls-19" transform="translate(473 1564)"><tspan x="17.469" y="10">18</tspan></text>
    <text id="D-30" data-name="D" class="cls-17" transform="translate(519 1564)"><tspan x="17.469" y="10">19</tspan></text>
    <text id="D-31" data-name="D" class="cls-17" transform="translate(565 1564)"><tspan x="20.249" y="10">2</tspan></text>
    <text id="D-32" data-name="D" class="cls-17" transform="translate(611 1564)"><tspan x="17.469" y="10">21</tspan></text>
    <text id="D-33" data-name="D" class="cls-17" transform="translate(657 1564)"><tspan x="17.469" y="10">22</tspan></text>
    <text id="D-34" data-name="D" class="cls-19" transform="translate(703 1564)"><tspan x="17.469" y="10">23</tspan></text>
    <text id="D-35" data-name="D" class="cls-17" transform="translate(749 1564)"><tspan x="17.469" y="10">24</tspan></text>
    <g id="rectangle-18-29" data-name="rectangle-18" class="cls-18" transform="translate(473 1593)">
      <rect class="cls-27" width="46" height="46"/>
      <rect class="cls-3" x="0.5" y="0.5" width="45" height="45"/>
    </g>
    <g id="rectangle-18-30" data-name="rectangle-18" class="cls-16" transform="translate(519 1593)">
      <rect class="cls-27" width="46" height="46"/>
      <rect class="cls-3" x="0.5" y="0.5" width="45" height="45"/>
    </g>
    <g id="rectangle-18-31" data-name="rectangle-18" class="cls-16" transform="translate(565 1593)">
      <rect class="cls-27" width="46" height="46"/>
      <rect class="cls-3" x="0.5" y="0.5" width="45" height="45"/>
    </g>
    <g id="rectangle-18-32" data-name="rectangle-18" class="cls-16" transform="translate(611 1593)">
      <rect class="cls-27" width="46" height="46"/>
      <rect class="cls-3" x="0.5" y="0.5" width="45" height="45"/>
    </g>
    <g id="rectangle-18-33" data-name="rectangle-18" class="cls-16" transform="translate(657 1593)">
      <rect class="cls-27" width="46" height="46"/>
      <rect class="cls-3" x="0.5" y="0.5" width="45" height="45"/>
    </g>
    <g id="rectangle-18-34" data-name="rectangle-18" class="cls-16" transform="translate(703 1593)">
      <rect class="cls-27" width="46" height="46"/>
      <rect class="cls-3" x="0.5" y="0.5" width="45" height="45"/>
    </g>
    <g id="rectangle-18-35" data-name="rectangle-18" class="cls-16" transform="translate(749 1593)">
      <rect class="cls-27" width="46" height="46"/>
      <rect class="cls-3" x="0.5" y="0.5" width="45" height="45"/>
    </g>
    <text id="D-36" data-name="D" class="cls-19" transform="translate(473 1610)"><tspan x="17.469" y="10">25</tspan></text>
    <text id="D-37" data-name="D" class="cls-17" transform="translate(519 1610)"><tspan x="17.469" y="10">26</tspan></text>
    <text id="D-38" data-name="D" class="cls-17" transform="translate(565 1610)"><tspan x="17.469" y="10">27</tspan></text>
    <text id="D-39" data-name="D" class="cls-17" transform="translate(611 1610)"><tspan x="17.469" y="10">28</tspan></text>
    <text id="D-40" data-name="D" class="cls-17" transform="translate(657 1610)"><tspan x="17.469" y="10">29</tspan></text>
    <text id="D-41" data-name="D" class="cls-17" transform="translate(703 1610)"><tspan x="17.469" y="10">30</tspan></text>
    <text id="D-42" data-name="D" class="cls-17" transform="translate(749 1610)"><tspan x="17.469" y="10">31</tspan></text>
    <rect id="rectangle-19" class="cls-20" width="375" height="667" transform="translate(445 1164)"/>
    <g id="group-10" transform="translate(445 1154)">
      <g id="rectangle-10-2" data-name="rectangle-10" class="cls-21" transform="translate(37 170)">
        <rect class="cls-27" width="302" height="297"/>
        <rect class="cls-3" x="0.5" y="0.5" width="301" height="296"/>
      </g>
      <text id="E-mail" class="cls-22" transform="translate(112 217)"><tspan x="0" y="0">10 de outubro de 2016</tspan></text>
      <text id="Estou_em_períod" data-name="Estou em períod" class="cls-23" transform="translate(188 411)"><tspan x="-113.355" y="0">Titulo da noticia ou da publicação</tspan><tspan x="-91.973" y="18">sobre determinado assunto</tspan></text>
      <text id="_." data-name="………." class="cls-24" transform="translate(168 240)"><tspan x="0" y="0">……….</tspan></text>
    </g>
    <g id="group-9" data-name="group" transform="translate(754 1333)">
      <path id="path-21" data-name="path" class="cls-25" d="M17,6.2,15.8,5,11,9.8,6.2,5,5,6.2,9.8,11,5,15.8,6.2,17,11,12.2,15.8,17,17,15.8,12.2,11Z"/>
      <rect id="rectangle-12" data-name="rectangle" class="cls-3" width="24" height="24"/>
    </g>
    <rect id="rectangle-20" class="cls-2" width="262" height="124" transform="translate(504 1414)"/>
    <text id="Imagem_destaque" data-name="Imagem destaque" class="cls-26" transform="translate(635 1473)"><tspan x="-52.383" y="0">Imagem destaque</tspan><tspan x="-28.412" y="15">da noticia</tspan></text>
  </g>
</svg>
