<svg xmlns="http://www.w3.org/2000/svg" xmlns:xlink="http://www.w3.org/1999/xlink" viewBox="2225 -786 375 732">
  <defs>
    <style>
      .cls-1 {
        clip-path: url(#clip-Cadastro_Gravidez_Filhos);
      }

      .cls-15, .cls-2, .cls-7 {
        fill: none;
      }

      .cls-2 {
        stroke: #95989a;
      }

      .cls-11, .cls-2, .cls-4, .cls-7, .cls-8 {
        stroke-width: 1px;
      }

      .cls-13, .cls-3 {
        fill: #95989a;
      }

      .cls-3 {
        font-size: 23px;
      }

      .cls-10, .cls-12, .cls-13, .cls-3, .cls-5, .cls-6, .cls-9 {
        font-family: HelveticaNeue, Helvetica Neue;
      }

      .cls-4 {
        fill: #fff;
      }

      .cls-4, .cls-8 {
        stroke: #ddd;
      }

      .cls-10, .cls-5, .cls-6 {
        fill: #999;
      }

      .cls-12, .cls-13, .cls-5 {
        font-size: 12px;
      }

      .cls-6 {
        font-size: 14px;
      }

      .cls-7 {
        stroke: #ccc;
      }

      .cls-8 {
        fill: #ddd;
      }

      .cls-12, .cls-9 {
        fill: #666;
      }

      .cls-9 {
        font-size: 13px;
      }

      .cls-10 {
        font-size: 10px;
      }

      .cls-11, .cls-16 {
        fill: #f1f1f1;
      }

      .cls-11 {
        stroke: #747474;
      }

      .cls-14 {
        stroke: none;
      }
    </style>
    <clipPath id="clip-Cadastro_Gravidez_Filhos">
      <rect x="2225" y="-786" width="375" height="732"/>
    </clipPath>
  </defs>
  <g id="Cadastro_Gravidez_Filhos" data-name="Cadastro – Gravidez + Filhos" class="cls-1">
    <rect class="cls-16" x="2225" y="-786" width="375" height="732"/>
    <g id="group-1" transform="translate(2176.215 -879.928)">
      <g id="rectangle-2" class="cls-2" transform="translate(123.785 154.928)">
        <rect class="cls-14" width="224.57" height="109.034"/>
        <rect class="cls-15" x="0.5" y="0.5" width="223.57" height="108.034"/>
      </g>
      <text id="Logotipo" class="cls-3" transform="translate(190.785 217.928)"><tspan x="0" y="0">Logotipo</tspan></text>
    </g>
    <g id="rectangle-7" class="cls-4" transform="translate(2263 -528)">
      <rect class="cls-14" width="300.5" height="35"/>
      <rect class="cls-15" x="0.5" y="0.5" width="299.5" height="34"/>
    </g>
    <text id="E-mail" class="cls-5" transform="translate(2273 -506)"><tspan x="0" y="0">Selecione o sexo do bebê</tspan></text>
    <text id="E-mail-2" data-name="E-mail" class="cls-6" transform="translate(2263 -551)"><tspan x="0" y="0">Sobre a gravidez</tspan></text>
    <line id="line-3" class="cls-7" x1="187" transform="translate(2376.5 -555.5)"/>
    <g id="rectangle-7-2" data-name="rectangle-7" class="cls-8" transform="translate(2413 -125)">
      <rect class="cls-14" width="151.5" height="40"/>
      <rect class="cls-15" x="0.5" y="0.5" width="150.5" height="39"/>
    </g>
    <text id="E-mail-3" data-name="E-mail" class="cls-9" transform="translate(2430 -100)"><tspan x="0" y="0">Concluir o Cadastro</tspan></text>
    <g id="rectangle-7-3" data-name="rectangle-7" class="cls-4" transform="translate(2262 -125)">
      <rect class="cls-14" width="131.5" height="40"/>
      <rect class="cls-15" x="0.5" y="0.5" width="130.5" height="39"/>
    </g>
    <text id="E-mail-4" data-name="E-mail" class="cls-9" transform="translate(2311 -100)"><tspan x="0" y="0">Voltar</tspan></text>
    <g id="rectangle-7-4" data-name="rectangle-7" class="cls-4" transform="translate(2263 -475)">
      <rect class="cls-14" width="219.5" height="35"/>
      <rect class="cls-15" x="0.5" y="0.5" width="218.5" height="34"/>
    </g>
    <text id="E-mail-5" data-name="E-mail" class="cls-5" transform="translate(2273 -453)"><tspan x="0" y="0">Qual o nome do bebê?</tspan></text>
    <g id="rectangle-7-5" data-name="rectangle-7" class="cls-4" transform="translate(2496.5 -465)">
      <rect class="cls-14" width="15" height="15"/>
      <rect class="cls-15" x="0.5" y="0.5" width="14" height="14"/>
    </g>
    <text id="E-mail-6" data-name="E-mail" class="cls-10" transform="translate(2518 -458)"><tspan x="0" y="0">Ainda não</tspan><tspan x="0" y="10">definido</tspan></text>
    <g id="rectangle-7-6" data-name="rectangle-7" class="cls-4" transform="translate(2263 -422)">
      <rect class="cls-14" width="219.5" height="35"/>
      <rect class="cls-15" x="0.5" y="0.5" width="218.5" height="34"/>
    </g>
    <text id="E-mail-7" data-name="E-mail" class="cls-5" transform="translate(2273 -400)"><tspan x="0" y="0">Data de nascimento estimada</tspan></text>
    <g id="rectangle-7-7" data-name="rectangle-7" class="cls-4" transform="translate(2496.5 -412)">
      <rect class="cls-14" width="15" height="15"/>
      <rect class="cls-15" x="0.5" y="0.5" width="14" height="14"/>
    </g>
    <text id="E-mail-8" data-name="E-mail" class="cls-10" transform="translate(2518 -405)"><tspan x="0" y="0">Ainda não</tspan><tspan x="0" y="10">definido</tspan></text>
    <g id="rectangle-7-8" data-name="rectangle-7" class="cls-4" transform="translate(2261 -329)">
      <rect class="cls-14" width="300.5" height="35"/>
      <rect class="cls-15" x="0.5" y="0.5" width="299.5" height="34"/>
    </g>
    <text id="E-mail-9" data-name="E-mail" class="cls-5" transform="translate(2270 -307)"><tspan x="0" y="0">Nome da criança</tspan></text>
    <text id="E-mail-10" data-name="E-mail" class="cls-6" transform="translate(2261 -352)"><tspan x="0" y="0">Sobre seu(s) filho(s)</tspan></text>
    <line id="line-3-2" data-name="line-3" class="cls-7" x1="168" transform="translate(2393.5 -356.5)"/>
    <g id="rectangle-7-9" data-name="rectangle-7" class="cls-4" transform="translate(2261 -276)">
      <rect class="cls-14" width="141.495" height="35"/>
      <rect class="cls-15" x="0.5" y="0.5" width="140.495" height="34"/>
    </g>
    <text id="E-mail-11" data-name="E-mail" class="cls-5" transform="translate(2270 -254)"><tspan x="0" y="0">Sexo da criança</tspan></text>
    <g id="rectangle-7-10" data-name="rectangle-7" class="cls-4" transform="translate(2420.005 -276)">
      <rect class="cls-14" width="141.495" height="35"/>
      <rect class="cls-15" x="0.5" y="0.5" width="140.495" height="34"/>
    </g>
    <text id="E-mail-12" data-name="E-mail" class="cls-5" transform="translate(2429 -254)"><tspan x="0" y="0">Idade</tspan></text>
    <g id="rectangle-7-11" data-name="rectangle-7" class="cls-11" transform="translate(2263 -196)">
      <rect class="cls-14" width="301.5" height="27"/>
      <rect class="cls-15" x="0.5" y="0.5" width="300.5" height="26"/>
    </g>
    <text id="E-mail-13" data-name="E-mail" class="cls-12" transform="translate(2361 -178)"><tspan x="0" y="0">Adicionar novo filho</tspan></text>
    <text id="_." data-name="………." class="cls-13" transform="translate(2391 -212)"><tspan x="0" y="0">……….</tspan></text>
    <text id="_.-2" data-name="………." class="cls-13" transform="translate(2391 -151)"><tspan x="0" y="0">……….</tspan></text>
  </g>
</svg>
