<svg xmlns="http://www.w3.org/2000/svg" xmlns:xlink="http://www.w3.org/1999/xlink" viewBox="445 189 375 667">
  <defs>
    <style>
      .cls-1, .cls-21 {
        fill: none;
      }

      .cls-2 {
        clip-path: url(#clip-Menu_Aberto);
      }

      .cls-3 {
        clip-path: url(#clip-path);
      }

      .cls-4 {
        fill: #ccc;
      }

      .cls-20, .cls-22, .cls-24, .cls-5, .cls-8 {
        fill: #666;
      }

      .cls-5 {
        font-size: 18px;
      }

      .cls-24, .cls-5, .cls-7, .cls-9 {
        font-family: HelveticaNeue-Medium, Helvetica Neue;
        font-weight: 500;
      }

      .cls-10, .cls-16, .cls-6, .cls-7 {
        fill: #95989a;
      }

      .cls-22, .cls-6, .cls-8 {
        font-size: 12px;
      }

      .cls-10, .cls-16, .cls-20, .cls-22, .cls-6 {
        font-family: HelveticaNeue, Helvetica Neue;
      }

      .cls-7 {
        font-size: 13px;
      }

      .cls-9 {
        fill: #999;
      }

      .cls-20, .cls-9 {
        font-size: 11px;
      }

      .cls-10 {
        font-size: 20px;
      }

      .cls-11, .cls-13 {
        fill: #ddd;
      }

      .cls-11, .cls-23 {
        stroke: #fff;
      }

      .cls-11, .cls-21 {
        stroke-width: 1px;
      }

      .cls-12 {
        opacity: 0.543;
      }

      .cls-14 {
        fill-rule: evenodd;
      }

      .cls-14, .cls-17 {
        opacity: 0.54;
      }

      .cls-15 {
        fill: #f1f1f1;
      }

      .cls-16, .cls-24 {
        font-size: 14px;
      }

      .cls-18 {
        fill: #010002;
      }

      .cls-19 {
        opacity: 0.798;
      }

      .cls-21 {
        stroke: #95989a;
      }

      .cls-23 {
        stroke-width: 2px;
        opacity: 0.533;
      }

      .cls-25 {
        stroke: none;
      }

      .cls-26 {
        fill: #fff;
      }
    </style>
    <clipPath id="clip-path">
      <rect class="cls-1" width="376" height="1139"/>
    </clipPath>
    <clipPath id="clip-Menu_Aberto">
      <rect x="445" y="189" width="375" height="667"/>
    </clipPath>
  </defs>
  <g id="Menu_Aberto" data-name="Menu Aberto" class="cls-2">
    <rect class="cls-26" x="445" y="189" width="375" height="667"/>
    <g id="group-8" class="cls-3" transform="translate(445 247)">
      <g id="group-7" transform="translate(0 -58)">
        <g id="group-4" transform="translate(419 -179)">
          <rect id="rectangle-4" class="cls-4" width="376" height="193" transform="translate(-419 237)"/>
        </g>
        <text id="Women_who_seek_" data-name="Women who seek " class="cls-5" transform="translate(18 262)"><tspan x="0" y="18">As mulheres que procuram ajuda têm </tspan><tspan x="0" y="38">uma maior taxa de sucesso</tspan></text>
        <text id="_._._._" data-name="……….……….……….………" class="cls-6" transform="translate(31 423)"><tspan x="0" y="0">……….……….……….……….……….……….……….……….</tspan></text>
        <text id="Women_who_seek_2" data-name="Women who seek " class="cls-7" transform="translate(18 336)"><tspan x="0" y="13">Pense em maneiras de garantir o sucesso antes mesmo </tspan><tspan x="0" y="31">de dar à luz”, sugere Stacey Brosnan, um consultor de </tspan><tspan x="0" y="49">lactação, em Nova York. </tspan><tspan class="cls-8" y="49">Continue lendo…</tspan></text>
        <text id="Women_who_seek_3" data-name="Women who seek " class="cls-9" transform="translate(18 307)"><tspan x="0" y="11">Publicado em 22/09/2016</tspan></text>
        <text id="Imagem_destaque" data-name="Imagem destaque" class="cls-10" transform="translate(106 162)"><tspan x="0" y="0">Imagem Destaque</tspan></text>
      </g>
      <g id="group-7-2" data-name="group-7" transform="translate(0 330)">
        <g id="group-4-2" data-name="group-4" transform="translate(419 -179)">
          <rect id="rectangle-4-2" data-name="rectangle-4" class="cls-4" width="376" height="193" transform="translate(-419 237)"/>
        </g>
        <text id="Women_who_seek_4" data-name="Women who seek " class="cls-5" transform="translate(18 262)"><tspan x="0" y="18">As mulheres que procuram ajuda têm </tspan><tspan x="0" y="38">uma maior taxa de sucesso</tspan></text>
        <text id="_._._._2" data-name="……….……….……….………" class="cls-6" transform="translate(31 423)"><tspan x="0" y="0">……….……….……….……….……….……….……….……….</tspan></text>
        <text id="Women_who_seek_5" data-name="Women who seek " class="cls-7" transform="translate(18 336)"><tspan x="0" y="13">Pense em maneiras de garantir o sucesso antes mesmo </tspan><tspan x="0" y="31">de dar à luz”, sugere Stacey Brosnan, um consultor de </tspan><tspan x="0" y="49">lactação, em Nova York. </tspan><tspan class="cls-8" y="49">Continue lendo…</tspan></text>
        <text id="Women_who_seek_6" data-name="Women who seek " class="cls-9" transform="translate(18 307)"><tspan x="0" y="11">Publicado em 22/09/2016</tspan></text>
        <text id="Imagem_destaque-2" data-name="Imagem destaque" class="cls-10" transform="translate(106 162)"><tspan x="0" y="0">Imagem Destaque</tspan></text>
      </g>
      <g id="group-7-3" data-name="group-7" transform="translate(0 718)">
        <g id="group-4-3" data-name="group-4" transform="translate(419 -179)">
          <rect id="rectangle-4-3" data-name="rectangle-4" class="cls-4" width="376" height="193" transform="translate(-419 237)"/>
        </g>
        <text id="Women_who_seek_7" data-name="Women who seek " class="cls-5" transform="translate(18 262)"><tspan x="0" y="18">As mulheres que procuram ajuda têm </tspan><tspan x="0" y="38">uma maior taxa de sucesso</tspan></text>
        <text id="_._._._3" data-name="……….……….……….………" class="cls-6" transform="translate(31 423)"><tspan x="0" y="0">……….……….……….……….……….……….……….……….</tspan></text>
        <text id="Women_who_seek_8" data-name="Women who seek " class="cls-7" transform="translate(18 336)"><tspan x="0" y="13">Pense em maneiras de garantir o sucesso antes mesmo </tspan><tspan x="0" y="31">de dar à luz”, sugere Stacey Brosnan, um consultor de </tspan><tspan x="0" y="49">lactação, em Nova York. </tspan><tspan class="cls-8" y="49">Continue lendo…</tspan></text>
        <text id="Women_who_seek_9" data-name="Women who seek " class="cls-9" transform="translate(18 307)"><tspan x="0" y="11">Publicado em 22/09/2016</tspan></text>
        <text id="Imagem_destaque-3" data-name="Imagem destaque" class="cls-10" transform="translate(106 162)"><tspan x="0" y="0">Imagem Destaque</tspan></text>
      </g>
    </g>
    <g id="group-3" transform="translate(445 189)">
      <g id="rectangle-1" class="cls-11" transform="translate(-3 617.453)">
        <rect class="cls-25" width="95.804" height="50.547"/>
        <rect class="cls-1" x="0.5" y="0.5" width="94.804" height="49.547"/>
      </g>
      <g id="rectangle-1-2" data-name="rectangle-1" class="cls-11" transform="translate(92 617.453)">
        <rect class="cls-25" width="95.804" height="50.547"/>
        <rect class="cls-1" x="0.5" y="0.5" width="94.804" height="49.547"/>
      </g>
      <g id="rectangle-1-3" data-name="rectangle-1" class="cls-11" transform="translate(186 617.453)">
        <rect class="cls-25" width="95.804" height="50.547"/>
        <rect class="cls-1" x="0.5" y="0.5" width="94.804" height="49.547"/>
      </g>
      <g id="rectangle-1-4" data-name="rectangle-1" class="cls-11" transform="translate(279 618)">
        <rect class="cls-25" width="95.804" height="50.547"/>
        <rect class="cls-1" x="0.5" y="0.5" width="94.804" height="49.547"/>
      </g>
      <g id="elemental-tip" class="cls-12" transform="translate(109.913 631.001)">
        <g id="group" transform="translate(19.087 -0.001)">
          <g id="group-2" data-name="group" transform="translate(0)">
            <path id="path" d="M100.132,23.6a8.149,8.149,0,0,0-3.667,15.427v4.855A2.128,2.128,0,0,0,98.59,46h3.084a2.128,2.128,0,0,0,2.125-2.125V39.023A8.149,8.149,0,0,0,100.132,23.6Zm.634,14.889c-.209.019-.42.03-.634.03s-.425-.01-.634-.03a10.387,10.387,0,0,0-.646-4.34h2.56A10.391,10.391,0,0,0,100.766,38.485Zm1.652,3.983H97.846v-2.9a8.158,8.158,0,0,0,4.572,0Zm0,1.41a.745.745,0,0,1-.744.744H98.59a.745.745,0,0,1-.744-.744v-.029h4.572Zm-.278-5.667a7.575,7.575,0,0,1,1-4.356.691.691,0,0,0-.562-1.092H97.687a.691.691,0,0,0-.562,1.092,7.576,7.576,0,0,1,1,4.356,6.769,6.769,0,1,1,4.015,0Z" transform="translate(-89.206 -22.697)"/>
            <path id="path-2" data-name="path" d="M21.086,2.977A.691.691,0,0,0,22.063,2L20.266.2a.691.691,0,0,0-.977.977Z" transform="translate(-19.087 0)"/>
            <path id="path-3" data-name="path" d="M510.133,3.178a.689.689,0,0,0,.489-.2l1.8-1.8A.691.691,0,0,0,511.441.2l-1.8,1.8a.691.691,0,0,0,.488,1.179Z" transform="translate(-490.768 0.001)"/>
            <path id="path-4" data-name="path" d="M510.622,391.966a.691.691,0,1,0-.977.977l1.8,1.8a.691.691,0,0,0,.977-.977Z" transform="translate(-490.769 -376.844)"/>
            <path id="path-5" data-name="path" d="M21.086,391.965l-1.8,1.8a.691.691,0,1,0,.977.977l1.8-1.8a.691.691,0,0,0-.977-.977Z" transform="translate(-19.087 -376.843)"/>
          </g>
        </g>
      </g>
      <g id="check" class="cls-12" transform="translate(260.092 631)">
        <g id="group-3-2" data-name="group" transform="translate(58.908)">
          <g id="group-4-4" data-name="group" transform="translate(0)">
            <path id="path-6" data-name="path" d="M75.864,34.738H72.179l.249,1.151a1.318,1.318,0,0,1,.013.427h2.635v18.6H60.484v-18.6H63.12a1.329,1.329,0,0,1,.014-.429l.249-1.149H59.7a.788.788,0,0,0-.788.789V55.7a.789.789,0,0,0,.788.789H75.864a.789.789,0,0,0,.789-.789V35.527A.789.789,0,0,0,75.864,34.738Z" transform="translate(-58.908 -33.062)"/>
            <path id="path-7" data-name="path" d="M233.681,152.949h-5.389a.789.789,0,1,0,0,1.577h5.389a.789.789,0,1,0,0-1.577Z" transform="translate(-219.37 -145.571)"/>
            <path id="path-8" data-name="path" d="M233.681,253.254h-5.389a.789.789,0,0,0,0,1.578h5.389a.789.789,0,0,0,0-1.578Z" transform="translate(-219.37 -241.038)"/>
            <path id="path-9" data-name="path" d="M114.024,113.894a.789.789,0,0,0-.095,1.112l1.151,1.364a.787.787,0,0,0,.6.28l.058,0a.788.788,0,0,0,.613-.372l2.07-3.351a.788.788,0,0,0-1.341-.829l-1.5,2.425-.449-.531A.787.787,0,0,0,114.024,113.894Z" transform="translate(-111.099 -106.331)"/>
            <path id="path-10" data-name="path" d="M135.368,245.094a1.183,1.183,0,1,0,1.183,1.183A1.183,1.183,0,0,0,135.368,245.094Z" transform="translate(-130.554 -233.271)"/>
            <path id="path-11" data-name="path" d="M233.681,351.359h-5.389a.789.789,0,1,0,0,1.577h5.389a.789.789,0,1,0,0-1.577Z" transform="translate(-219.37 -334.41)"/>
            <path id="path-12" data-name="path" d="M135.368,343.2a1.183,1.183,0,1,0,1.183,1.183A1.183,1.183,0,0,0,135.368,343.2Z" transform="translate(-130.554 -326.644)"/>
            <path id="path-13" data-name="path" d="M162.785,3.647h6.692a.541.541,0,0,0,.529-.656L169.453.427a.542.542,0,0,0-.53-.427H163.34a.542.542,0,0,0-.53.427l-.555,2.564a.547.547,0,0,0,.108.455A.54.54,0,0,0,162.785,3.647Z" transform="translate(-157.26)"/>
          </g>
        </g>
      </g>
      <g id="info" class="cls-12" transform="translate(215.6 624.4)">
        <g id="group-5" data-name="group" transform="translate(6.4 6.6)">
          <path id="path-14" data-name="path" d="M18.124,30.028A11.714,11.714,0,1,0,6.4,18.314,11.718,11.718,0,0,0,18.124,30.028Zm0-21.813A10.078,10.078,0,1,1,8.055,18.294,10.089,10.089,0,0,1,18.124,8.216Z" transform="translate(-6.4 -6.6)"/>
          <path id="path-15" data-name="path" d="M51.527,58.019a.828.828,0,0,0,0,1.656h5.428a.828.828,0,0,0,0-1.656h-1.9V50.728a.819.819,0,0,0-.827-.828h-2.7a.828.828,0,0,0,0,1.656h1.9v6.463Z" transform="translate(-41.76 -41.155)"/>
          <ellipse id="ellipse" cx="1.332" cy="1.333" rx="1.332" ry="1.333" transform="translate(10.029 4.706)"/>
        </g>
      </g>
      <g id="little-home" class="cls-12" transform="translate(-1449.55 587.352)">
        <g id="group-6" data-name="group" transform="translate(1480.55 43.648)">
          <path id="path-16" data-name="path" d="M26.934,52.48l-3.226-2.208v-5.65a.789.789,0,0,0-.789-.789H19.076a.789.789,0,0,0-.789.789v1.939l-4.2-2.876a.789.789,0,0,0-.9,0L.344,52.48a.789.789,0,1,0,.891,1.3l2.334-1.6V66.152a.789.789,0,0,0,.789.789h18.56a.789.789,0,0,0,.789-.789V52.184l2.334,1.6a.789.789,0,0,0,.892-1.3ZM15.277,65.363H12V57.69h3.276Zm6.853,0H16.855V56.9a.789.789,0,0,0-.789-.789H11.212a.789.789,0,0,0-.789.789v8.462H5.148V51.1l8.491-5.811L22.13,51.1V65.363h0Zm0-16.171-2.265-1.55v-2.23H22.13Z" transform="translate(0 -43.545)"/>
        </g>
      </g>
    </g>
    <g id="group-2-2" data-name="group-2" transform="translate(445 189)">
      <rect id="rectangle-1-5" data-name="rectangle-1" class="cls-13" width="375" height="58"/>
      <g id="group-7-4" data-name="group" transform="translate(15 17)">
        <rect id="rectangle" class="cls-1" width="24" height="24"/>
        <g id="group-8-2" data-name="group">
          <path id="path-17" data-name="path" class="cls-14" d="M19,6.4,17.6,5,12,10.6,6.4,5,5,6.4,10.6,12,5,17.6,6.4,19,12,13.4,17.6,19,19,17.6,13.4,12Z"/>
          <rect id="rectangle-2" data-name="rectangle" class="cls-1" width="24" height="24"/>
        </g>
      </g>
      <g id="group-1" transform="translate(-2 -146)">
        <rect id="rectangle-2-2" data-name="rectangle-2" class="cls-15" width="131" height="39" transform="translate(124 155)"/>
        <text id="Logotipo" class="cls-16" transform="translate(162 180)"><tspan x="0" y="0">Logotipo</tspan></text>
      </g>
      <g id="small-calendar" transform="translate(338 19)">
        <g id="calendar_1_" class="cls-17" transform="translate(2)">
          <path id="path-18" data-name="path" class="cls-18" d="M18.334,1.875H15.625V.625a.625.625,0,0,0-1.25,0v1.25h-3.75V.625a.625.625,0,0,0-1.25,0v1.25H5.625V.625a.625.625,0,0,0-1.25,0v1.25H1.667A1.666,1.666,0,0,0,0,3.541V18.333A1.667,1.667,0,0,0,1.667,20H18.334A1.666,1.666,0,0,0,20,18.333V3.541A1.666,1.666,0,0,0,18.334,1.875Zm.416,16.458a.417.417,0,0,1-.416.417H1.667a.417.417,0,0,1-.417-.417V3.541a.417.417,0,0,1,.417-.416H4.375v1.25a.625.625,0,0,0,1.25,0V3.125h3.75v1.25a.625.625,0,0,0,1.25,0V3.125h3.75v1.25a.625.625,0,0,0,1.25,0V3.125h2.709a.417.417,0,0,1,.416.416Z"/>
          <rect id="rectangle-3" data-name="rectangle" class="cls-18" width="2.5" height="1.875" transform="translate(4.375 7.5)"/>
          <rect id="rectangle-4-4" data-name="rectangle" class="cls-18" width="2.5" height="1.875" transform="translate(4.375 10.625)"/>
          <rect id="rectangle-5" data-name="rectangle" class="cls-18" width="2.5" height="1.875" transform="translate(4.375 13.75)"/>
          <rect id="rectangle-6" data-name="rectangle" class="cls-18" width="2.5" height="1.875" transform="translate(8.75 13.75)"/>
          <rect id="rectangle-7" data-name="rectangle" class="cls-18" width="2.5" height="1.875" transform="translate(8.75 10.625)"/>
          <rect id="rectangle-8" data-name="rectangle" class="cls-18" width="2.5" height="1.875" transform="translate(8.75 7.5)"/>
          <rect id="rectangle-9" data-name="rectangle" class="cls-18" width="2.5" height="1.875" transform="translate(13.125 13.75)"/>
          <rect id="rectangle-10" data-name="rectangle" class="cls-18" width="2.5" height="1.875" transform="translate(13.125 10.625)"/>
          <rect id="rectangle-11" data-name="rectangle" class="cls-18" width="2.5" height="1.875" transform="translate(13.125 7.5)"/>
        </g>
      </g>
      <g id="group-1-2" data-name="group-1" transform="translate(-2 -146)">
        <rect id="rectangle-2-3" data-name="rectangle-2" class="cls-15" width="131" height="39" transform="translate(124 155)"/>
        <text id="Logotipo-2" data-name="Logotipo" class="cls-16" transform="translate(162 180)"><tspan x="0" y="0">Logotipo</tspan></text>
      </g>
    </g>
    <rect id="rectangle-13" class="cls-19" width="375" height="609" transform="translate(445 247)"/>
    <rect id="rectangle-13-2" data-name="rectangle-13" class="cls-15" width="254" height="609" transform="translate(445 247)"/>
    <g id="group-12" transform="translate(453 381)">
      <text id="Notícias_da_seg" data-name="Notícias da seg" class="cls-20" transform="translate(10.958 93)"><tspan x="0" y="0">Notícias da segunda-feira</tspan></text>
      <line id="line-4" class="cls-21" x2="214.324" transform="translate(10.5 108.5)"/>
      <text id="Notícias_da_seg-2" data-name="Notícias da seg" class="cls-20" transform="translate(10.958 129)"><tspan x="0" y="0">Notícias da quinta-feira</tspan></text>
      <line id="line-4-2" data-name="line-4" class="cls-21" x2="214.324" transform="translate(10.5 144.5)"/>
      <text id="Notícias_da_seg-3" data-name="Notícias da seg" class="cls-20" transform="translate(10.958 165)"><tspan x="0" y="0">Notícias da sexta-feira</tspan></text>
      <line id="line-4-3" data-name="line-4" class="cls-21" x2="214.324" transform="translate(10.5 180.5)"/>
      <text id="Notícias_da_seg-4" data-name="Notícias da seg" class="cls-22" transform="translate(10.958 202)"><tspan x="0" y="0">Guias</tspan></text>
      <line id="line-4-4" data-name="line-4" class="cls-21" x2="214.324" transform="translate(10.5 216.5)"/>
      <text id="Notícias_da_seg-5" data-name="Notícias da seg" class="cls-20" transform="translate(10.958 237)"><tspan x="0" y="0">Controle de Vacina</tspan></text>
      <line id="line-4-5" data-name="line-4" class="cls-21" x2="214.324" transform="translate(10.5 252.5)"/>
      <text id="Notícias_da_seg-6" data-name="Notícias da seg" class="cls-20" transform="translate(10.958 273)"><tspan x="0" y="0">Editar meus dados </tspan></text>
      <line id="line-4-6" data-name="line-4" class="cls-21" x2="214.324" transform="translate(10.5 288.5)"/>
    </g>
    <path id="user" class="cls-23" d="M123.961,61.98A61.98,61.98,0,1,0,10.409,96.314l0,.043.428.626c.372.543.773,1.058,1.161,1.587.157.215.312.432.473.647.492.653,1,1.293,1.512,1.923.149.182.3.362.45.541a62,62,0,0,0,7.836,7.838c.171.143.341.287.514.43.616.5,1.238.994,1.872,1.471.256.194.517.382.775.572.6.442,1.207.88,1.826,1.3.331.225.674.436,1.008.655.859.558,1.727,1.1,2.611,1.609.616.359,1.233.717,1.864,1.056.38.2.769.395,1.153.591.671.343,1.345.676,2.029.994q.518.239,1.037.469,1.187.527,2.4,1c.25.1.5.2.75.3a61.383,61.383,0,0,0,6.822,2.14c.1.025.192.043.287.066q1.543.378,3.118.678c.279.054.558.1.837.151q1.314.232,2.645.409c.339.045.676.089,1.014.13.866.1,1.738.178,2.614.242.326.025.651.056.977.074,1.18.062,2.366.105,3.562.105s2.382-.043,3.562-.11c.326-.019.651-.052.977-.074.876-.064,1.748-.14,2.614-.242.339-.039.678-.085,1.014-.13q1.333-.177,2.645-.409c.279-.05.558-.1.837-.151q1.574-.3,3.118-.678l.287-.066a61.385,61.385,0,0,0,6.822-2.14c.252-.1.5-.2.754-.3q1.212-.477,2.4-1c.347-.153.694-.31,1.037-.469q1.026-.477,2.029-.994c.384-.2.773-.388,1.153-.591.63-.339,1.246-.7,1.864-1.056q1.326-.772,2.611-1.609c.337-.219.678-.43,1.008-.655.618-.419,1.221-.857,1.826-1.3.258-.19.519-.378.775-.572q.948-.716,1.872-1.471c.174-.143.343-.287.514-.43a62.035,62.035,0,0,0,7.838-7.841c.151-.18.3-.357.446-.539.514-.63,1.021-1.271,1.512-1.923.161-.213.314-.43.473-.647.386-.529.789-1.043,1.161-1.587l.428-.626,0-.043A61.6,61.6,0,0,0,123.961,61.98Zm-4.132,0a57.481,57.481,0,0,1-7.419,28.292A28.188,28.188,0,0,0,85.349,70.245H73.067a.756.756,0,0,1-.756-.754V68.158a.824.824,0,0,1,.57-.727c13.3-5,21.6-25.751,19.861-40.263a30.856,30.856,0,0,0-10.088-19.2A57.936,57.936,0,0,1,119.829,61.98ZM108.544,96.256c-.167.225-.335.448-.5.671-.461.605-.926,1.207-1.409,1.793-.05.06-.1.118-.151.178a58.493,58.493,0,0,1-5.394,5.667c-.114.105-.227.213-.343.316-.572.519-1.159,1.023-1.752,1.519-.186.155-.374.308-.562.461-.576.469-1.157.93-1.75,1.376-.2.151-.407.293-.609.442-.341.25-.686.492-1.031.733V99.169H90.907v12.877c-.081.048-.161.093-.244.14-.527.3-1.052.6-1.587.884-.366.194-.738.382-1.109.57q-.936.471-1.886.909c-.31.143-.618.285-.93.421q-1.193.521-2.409.99c-.167.064-.331.134-.5.2a57.658,57.658,0,0,1-6.328,1.963c-.155.039-.312.07-.467.107-.89.213-1.789.407-2.692.576-.269.052-.537.1-.808.145q-1.2.211-2.417.368c-.312.041-.624.085-.938.12-.8.093-1.607.161-2.417.221-.3.021-.6.052-.9.068-1.1.066-2.194.1-3.3.1s-2.2-.037-3.3-.1c-.3-.017-.6-.048-.9-.068-.808-.06-1.616-.128-2.417-.221-.314-.035-.626-.078-.938-.12q-1.215-.161-2.417-.368c-.269-.048-.539-.093-.808-.145q-1.354-.257-2.692-.578c-.155-.037-.31-.07-.465-.107a58.143,58.143,0,0,1-6.33-1.963c-.167-.062-.333-.132-.5-.2q-1.215-.468-2.407-.99c-.312-.136-.622-.279-.932-.421q-.951-.437-1.886-.909c-.372-.188-.744-.374-1.109-.57-.535-.283-1.062-.585-1.587-.884-.081-.048-.163-.093-.244-.14V99.169H28.924v10.243c-.347-.242-.692-.486-1.031-.733-.2-.149-.409-.291-.609-.442-.593-.446-1.173-.907-1.748-1.374-.19-.153-.378-.308-.566-.463q-.889-.741-1.75-1.516c-.116-.105-.231-.215-.347-.32A58.2,58.2,0,0,1,17.481,98.9c-.05-.06-.1-.118-.151-.178-.483-.587-.948-1.188-1.409-1.793-.169-.223-.339-.446-.5-.671-.248-.337-.488-.68-.727-1.023A24.063,24.063,0,0,1,38.612,74.377h5.983L61.98,91.76,79.364,74.377h5.983a24.065,24.065,0,0,1,23.924,20.856C109.032,95.576,108.794,95.919,108.544,96.256ZM52.665,63.615C42.785,59.96,35.122,43.076,35.122,30.99c0-.264.031-.523.037-.785l1.512-1.866c3.411-4.058,9.233-5.219,14.487-2.892a16.529,16.529,0,0,0,21.21-7.233,34.55,34.55,0,0,1,16.41,11.359c.605,12.6-6.805,30.025-17.35,33.99a4.907,4.907,0,0,0-3.25,4.595V69.49a4.894,4.894,0,0,0,4.886,4.886h.457L61.98,85.917,50.44,74.377H50.9a4.894,4.894,0,0,0,4.886-4.886V68.179A4.857,4.857,0,0,0,52.665,63.615Zm9.4-59.479h.068a27.4,27.4,0,0,1,2.954.171A26.961,26.961,0,0,1,87.3,22.053a39.885,39.885,0,0,0-15.489-8.32l-1.777-.488-.688,1.707A12.4,12.4,0,0,1,52.834,21.67a16.584,16.584,0,0,0-16.563,1.508A26.892,26.892,0,0,1,62.063,4.136ZM41.283,7.975c-.4.359-.81.7-1.194,1.081a30.783,30.783,0,0,0-9.1,21.935c0,13.7,8.657,32.215,20.241,36.5a.728.728,0,0,1,.419.69V69.49a.756.756,0,0,1-.754.754H38.614A28.189,28.189,0,0,0,11.551,90.272a57.781,57.781,0,0,1,29.732-82.3Z" transform="translate(510.5 276.02)"/>
    <text id="Olá_Maria_Beatr" data-name="Olá Maria Beatr" class="cls-24" transform="translate(516 427)"><tspan x="0" y="0">Olá Maria Beatriz</tspan></text>
  </g>
</svg>
