<svg id="Layer_1" data-name="Layer 1" xmlns="http://www.w3.org/2000/svg" xmlns:xlink="http://www.w3.org/1999/xlink" viewBox="0 0 612.22 337.94"><defs><style>.cls-1,.cls-2,.cls-3,.cls-4{fill-rule:evenodd;}.cls-1{fill:url(#linear-gradient);}.cls-2{fill:url(#linear-gradient-2);}.cls-3{fill:url(#linear-gradient-3);}.cls-4{fill:#fff;}</style><linearGradient id="linear-gradient" x1="822.21" y1="570.11" x2="822.21" y2="291.61" gradientUnits="userSpaceOnUse"><stop offset="0" stop-color="#d58b91"/><stop offset="1" stop-color="#58167d"/></linearGradient><linearGradient id="linear-gradient-2" x1="546.15" y1="493.63" x2="546.15" y2="232.16" xlink:href="#linear-gradient"/><linearGradient id="linear-gradient-3" x1="880.49" y1="317.18" x2="880.49" y2="291.84" xlink:href="#linear-gradient"/></defs><title>logo-euvejo</title><path class="cls-1" d="M848.15,434c9.41-8.53,18.13-17.41,26.53-26.6,4.21-4.61,8.26-9.37,12.38-14.07a53.71,53.71,0,0,0,8.3-12.79,103.34,103.34,0,0,1,13.07-20.84c5.16-6.45,11.57-8.32,19.24-6.57,2.2,0.5,3-.17,4.12-1.85q14.65-22.94,41.91-21.77c9.94,0.44,17.79,7.93,19.73,18.32s-1.36,19.72-4.94,29c-1.9,4.95-4.25,9.72-6.77,15.42,2.58-1.36,4.52-2.28,6.36-3.39,12.27-7.35,22.42-17,31.18-28.27,1.15-1.48,2.21-3,3.49-4.39s3.05-1.83,4.7-.52,1.08,2.89.05,4.3c-13.55,18.46-29.37,34.3-50.79,43.57a9.44,9.44,0,0,0-4.4,3.71c-10.6,16.07-22.8,30.67-38.9,41.57-8,5.43-16.53,9.37-26.6,9.73-17.82.63-24.34-12.12-25.13-24.52a74.86,74.86,0,0,1,2.57-23.7c0.19-.72.35-1.45,0.48-2.18a3.06,3.06,0,0,0-.32-0.94c-3.34,3.54-6.52,7-9.8,10.38-10.55,10.84-21.65,21.12-33.07,31a18.66,18.66,0,0,0-4.32,5.53C822.59,481.86,807.13,509,788.19,534c-8.08,10.67-16.61,21-27.42,29.07-7.52,5.64-15.65,8-25.22,6.57-12.62-1.95-18.36-19.45-13.29-28a68.52,68.52,0,0,1,11.35-13.86c12.95-12.74,27.52-23.51,41.93-34.47,8.15-6.2,16.19-12.53,24.39-18.66a23.08,23.08,0,0,0,7.16-8.4c2.31-4.67,4.9-9.21,7.21-14.14-7.79,5.16-16,8.46-25.46,6.83s-16.57-7.07-22-16.05a178.05,178.05,0,0,0-2.86,22.37,112.22,112.22,0,0,0,.72,25.05c0.55,3.48-.87,3.91-3.62,3.24a13.82,13.82,0,0,1-9.7-7.56c-17.29-35.53-37.6-69.38-57.71-103.33-12.08-20.38-26.17-39.26-43.09-56-8.06-8-16.81-14.88-27-20a21.53,21.53,0,0,1-6.12-4.27c-2.31-2.43-1.9-4.69.59-6.72,4.57-3.73,10-4.22,15.59-4.15,15.3,0.19,26,8.81,35.73,19.43,16.61,18.2,28.56,39.39,39.24,61.33,9.07,18.63,18.8,37,26.79,56.11,3.26,7.82,6.67,15.58,10,23.28,1.71-.25,1.29-1.38,1.45-2.11,3.21-14.59,8.72-28.41,14.3-42.18,3.1-7.67,3.89-15.92,6.6-23.69,6.35-18.25,15.69-34.45,31-46.66a51.15,51.15,0,0,1,23.51-10.74c8-1.36,13.32,1.76,15.83,9.43,2.9,8.86,1.88,17.52-1.85,25.85-7.92,17.7-21.88,29.34-39.36,36.42-6.35,2.57-7.47,6.14-7.5,11.76,0,8.5-.08,17,2.28,25.25,3.88,13.56,13.72,16.25,24,6.5a56.43,56.43,0,0,0,12-15.71c13.3-26.85,25.81-54.06,35.72-82.38,0.33-.94.66-1.88,0.92-2.84,1.62-5.87,4.24-7.29,10.2-5.49,7.15,2.16,11.08,9,9,16.11-4.8,16.12-11.73,31.42-18.69,46.68-5,11-10.34,21.79-15.51,32.68C848.75,431.62,847.84,432.45,848.15,434Z" transform="translate(-416.29 -232.16)"/><path class="cls-2" d="M645,444c-4.22,6.52-8.19,12.55-12.6,18.26-6.53,8.45-13.77,16.19-22.89,21.89-11.89,7.44-26.27,6-35.8-3.5-4.25-4.23-6-9.67-7.06-15.4-0.26-1.46-.39-2.94-0.63-4.85-3.39,2.84-6.41,5.56-9.63,8-19.25,14.8-41.31,22.2-65.27,24.51-12.14,1.17-24.15,1.22-35.89-2.87-26.92-9.38-40.69-34.92-38.71-60.56,2.1-27.19,16.83-46.53,38.06-61.89,17-12.27,36-20.2,55.9-26.24,0.92-.28,1.83-0.61,3.43-1.15-7.67-1.56-14.42-3.61-20.68-7.1-22.06-12.28-27.68-39.28-12.32-59.33,8.23-10.74,18.82-18.53,30.82-24.46,24.84-12.26,51.11-18.27,78.84-17a41.87,41.87,0,0,1,26.06,10c7,6,9.85,13.93,10.19,22.88a14.56,14.56,0,0,1-5.48,12.24c-18.5,14.72-39.54,22-63.3,20.43-6-.39-11.16-2.85-14.51-8.09-2.87-4.49-1.25-7.37,4-7.75a20.16,20.16,0,0,1,9.09,1.8c12.72,5.11,25.6,5,38.53,1,11.07-3.45,17.2-11.71,16.43-21.72-0.75-9.77-8.42-17.86-19.4-19.24-30.25-3.78-56.31,5.64-78.65,26a64.23,64.23,0,0,0-14.38,19.46c-6.25,12.73,0,25.33,9.28,31.35,8.63,5.57,18.13,6.67,28,5.59,5.73-.63,11.48-0.56,17.21-0.68,4.8-.1,7.33,2.62,7.58,7.41,0.37,6.9-.54,8.33-7.05,10.72-15.67,5.75-32,9.58-47.51,15.71-14.65,5.78-29,12-40.83,22.92-16.43,15.11-23.35,34-21.23,55.91,1.3,13.41,9.92,22.61,20.55,29.91,15,10.29,31.18,10.35,47.61,4.35A118.14,118.14,0,0,0,564,436.62c5.41-6.52,8.05-14.59,11.06-22.37,4.55-11.75,8.73-23.64,13.28-35.38,2.41-6.22,8.87-9.15,15.31-7.44,7.58,2,10.63,8.5,6.93,15.75a196.73,196.73,0,0,0-12.13,28.57c-4.82,14.83-9.35,29.75-10,45.5a32.47,32.47,0,0,0,.78,8.92c1.55,6.55,5.63,8.7,12,6.31,7.06-2.63,12.11-7.84,16.8-13.4,16.14-19.14,28-40.91,39-63.27,3.34-6.84,6.43-13.79,9.67-20.67,0.68-1.45,1.16-3.2,2.83-3.8s3.73-.79,5.3.57c1.73,1.5,1.18,3.42.51,5.2-4,10.61-8.82,20.9-13.36,31.3-5.66,13-8.1,26.61-4,40.48,2.57,8.63,8.15,15.67,15,21.55,0.57,0.49,1.14,1,1.7,1.47s1.18,1.42.63,2.3-1.53.56-2.33,0.19a28.89,28.89,0,0,1-7.77-5.17A78.61,78.61,0,0,1,645,444Z" transform="translate(-416.29 -232.16)"/><path class="cls-3" d="M893.85,312.11c0.69,2-1.05,3.1-3.25,3.79a25.07,25.07,0,0,1-16.16-.12c-6.46-2.29-9.09-8.45-6.42-14.83a14.41,14.41,0,0,1,11.23-8.87c5.19-1,8.84,1,11.3,5.86C892.66,302.14,893.16,306.73,893.85,312.11Z" transform="translate(-416.29 -232.16)"/><path class="cls-4" d="M923.24,380.14c0.26,27.72,16.75,30.34,36.08,28.41a95,95,0,0,1-8.67,11.63c-5.86,7-12.18,13.52-20.07,18.32a33.92,33.92,0,0,1-12.07,4.68c-8,1.35-14.66-3.92-15.15-12a45.94,45.94,0,0,1,2.86-17.92C910.26,401.59,916.36,391,923.24,380.14Z" transform="translate(-416.29 -232.16)"/><path class="cls-4" d="M942.17,379.24c-0.28-15,14.1-33.22,28.28-35.88,7.92-1.49,12.6,2.33,12.45,10.47-0.18,9.53-4,18.1-7.7,26.63-1.78,4.09-4.2,7.9-6,12-1.31,3-3.38,4.06-6.49,4.43C951.09,398.23,942.38,390.87,942.17,379.24Z" transform="translate(-416.29 -232.16)"/><path class="cls-4" d="M794.87,487.16c-12.61,21.18-25.12,42.44-43.5,59.36-4.05,3.73-8.45,7.06-13.91,8.38-3.11.75-6.49,1.39-9-1.71-2.14-2.68-2.15-6.5.29-10.08,4.62-6.76,10.78-12.08,16.9-17.39C761.42,512.09,778.24,499.83,794.87,487.16Z" transform="translate(-416.29 -232.16)"/><path class="cls-4" d="M791.95,390.07c2.55-13,6-24.68,12-35.52a54,54,0,0,1,7.14-10,24.85,24.85,0,0,1,11-7.52c3.85-1.2,6.22.19,7.17,4.16,1.14,4.81.05,9.45-1.55,13.92C821.57,372.1,809.56,383.23,791.95,390.07Z" transform="translate(-416.29 -232.16)"/></svg>