<svg xmlns="http://www.w3.org/2000/svg" viewBox="451 2006 21.852 23.306">
  <defs>
    <style>
      .cls-1 {
        opacity: 0.543;
      }
    </style>
  </defs>
  <g id="elemental-tip" class="cls-1" transform="translate(431.913 2006.001)">
    <g id="group" transform="translate(19.087 -0.001)">
      <g id="group-2" data-name="group" transform="translate(0)">
        <path id="path" d="M100.132,23.6a8.149,8.149,0,0,0-3.667,15.427v4.855A2.128,2.128,0,0,0,98.59,46h3.084a2.128,2.128,0,0,0,2.125-2.125V39.023A8.149,8.149,0,0,0,100.132,23.6Zm.634,14.889c-.209.019-.42.03-.634.03s-.425-.01-.634-.03a10.387,10.387,0,0,0-.646-4.34h2.56A10.391,10.391,0,0,0,100.766,38.485Zm1.652,3.983H97.846v-2.9a8.158,8.158,0,0,0,4.572,0Zm0,1.41a.745.745,0,0,1-.744.744H98.59a.745.745,0,0,1-.744-.744v-.029h4.572Zm-.278-5.667a7.575,7.575,0,0,1,1-4.356.691.691,0,0,0-.562-1.092H97.687a.691.691,0,0,0-.562,1.092,7.576,7.576,0,0,1,1,4.356,6.769,6.769,0,1,1,4.015,0Z" transform="translate(-89.206 -22.697)"/>
        <path id="path-2" data-name="path" d="M21.086,2.977A.691.691,0,0,0,22.063,2L20.266.2a.691.691,0,0,0-.977.977Z" transform="translate(-19.087 0)"/>
        <path id="path-3" data-name="path" d="M510.133,3.178a.689.689,0,0,0,.489-.2l1.8-1.8A.691.691,0,0,0,511.441.2l-1.8,1.8a.691.691,0,0,0,.488,1.179Z" transform="translate(-490.768 0.001)"/>
        <path id="path-4" data-name="path" d="M510.622,391.966a.691.691,0,1,0-.977.977l1.8,1.8a.691.691,0,0,0,.977-.977Z" transform="translate(-490.769 -376.844)"/>
        <path id="path-5" data-name="path" d="M21.086,391.965l-1.8,1.8a.691.691,0,1,0,.977.977l1.8-1.8a.691.691,0,0,0-.977-.977Z" transform="translate(-19.087 -376.843)"/>
      </g>
    </g>
  </g>
</svg>
