<svg xmlns="http://www.w3.org/2000/svg" viewBox="368 1254 27.277 23.396">
  <defs>
    <style>
      .cls-1 {
        fill: #fd6f55;
      }
    </style>
  </defs>
  <g id="little-home" transform="translate(-1112.55 1210.352)">
    <g id="group" transform="translate(1480.55 43.648)">
      <path id="path" class="cls-1" d="M26.934,52.48l-3.226-2.208v-5.65a.789.789,0,0,0-.789-.789H19.076a.789.789,0,0,0-.789.789v1.939l-4.2-2.876a.789.789,0,0,0-.9,0L.344,52.48a.789.789,0,1,0,.891,1.3l2.334-1.6V66.152a.789.789,0,0,0,.789.789h18.56a.789.789,0,0,0,.789-.789V52.184l2.334,1.6a.789.789,0,0,0,.892-1.3ZM15.277,65.363H12V57.69h3.276Zm6.853,0H16.855V56.9a.789.789,0,0,0-.789-.789H11.212a.789.789,0,0,0-.789.789v8.462H5.148V51.1l8.491-5.811L22.13,51.1V65.363h0Zm0-16.171-2.265-1.55v-2.23H22.13Z" transform="translate(0 -43.545)"/>
    </g>
  </g>
</svg>
