<svg xmlns="http://www.w3.org/2000/svg" viewBox="1921 1001 22.2 17.02">
  <defs>
    <style>
      .cls-1 {
        opacity: 0.545;
      }
    </style>
  </defs>
  <g id="baby-girl" class="cls-1" transform="translate(1921 999.146)">
    <g id="group" transform="translate(0 5.549)">
      <g id="group-2" data-name="group">
        <path id="path" d="M11.1,21.538c-4.134,0-7.759-2.346-8.729-5.61A2.265,2.265,0,0,1,0,13.842a2.273,2.273,0,0,1,2.416-2.087h.207A7.744,7.744,0,0,1,5.781,8.265a.372.372,0,0,1,.468.072.266.266,0,0,1-.083.4,7.069,7.069,0,0,0-2.986,3.4.336.336,0,0,1-.319.2H2.416A1.64,1.64,0,0,0,.673,13.842a1.64,1.64,0,0,0,1.744,1.506h.221a.329.329,0,0,1,.328.228c.8,3.118,4.219,5.382,8.135,5.382s7.337-2.264,8.135-5.382a.33.33,0,0,1,.328-.228h.221a1.639,1.639,0,0,0,1.743-1.506,1.639,1.639,0,0,0-1.743-1.506h-.445a.336.336,0,0,1-.319-.2,6.972,6.972,0,0,0-2.963-3.381.266.266,0,0,1-.082-.4.372.372,0,0,1,.468-.071,7.621,7.621,0,0,1,3.133,3.474h.208A2.272,2.272,0,0,1,22.2,13.842a2.265,2.265,0,0,1-2.371,2.087C18.86,19.193,15.234,21.538,11.1,21.538Z" transform="translate(0 -8.213)"/>
        <g id="group-3" data-name="group" transform="translate(13.106 6.047)">
          <ellipse id="ellipse" cx="0.813" cy="0.702" rx="0.813" ry="0.702"/>
        </g>
        <g id="group-4" data-name="group" transform="translate(7.779 6.047)">
          <ellipse id="ellipse-2" data-name="ellipse" cx="0.813" cy="0.702" rx="0.813" ry="0.702"/>
        </g>
        <path id="path-2" data-name="path" d="M15.2,25.506a5.071,5.071,0,0,1-2.377-.585l-.131-.069a.27.27,0,0,1-.112-.4.369.369,0,0,1,.463-.1l.132.07a4.364,4.364,0,0,0,4.051,0l.131-.07a.369.369,0,0,1,.463.095.269.269,0,0,1-.11.4l-.132.07A5.071,5.071,0,0,1,15.2,25.506Z" transform="translate(-4.101 -14.958)"/>
      </g>
    </g>
    <g id="group-5" data-name="group" transform="translate(5.65 1.854)">
      <path id="path-3" data-name="path" d="M15.723,6.732a1.5,1.5,0,0,1-1.6-1.38,1.5,1.5,0,0,1,1.6-1.38,1.5,1.5,0,0,1,1.6,1.38A1.5,1.5,0,0,1,15.723,6.732Zm0-2.179a.87.87,0,0,0-.925.8.935.935,0,0,0,1.85,0A.87.87,0,0,0,15.723,4.553Z" transform="translate(-10.273 -2.741)"/>
      <path id="path-4" data-name="path" d="M20.189,7.076a1.826,1.826,0,0,1-.587-.1L16.213,5.825a.279.279,0,0,1-.189-.377.353.353,0,0,1,.436-.163L19.849,6.44a1.036,1.036,0,0,0,.86-.083.766.766,0,0,0,.4-.661V3.234a.767.767,0,0,0-.4-.661,1.035,1.035,0,0,0-.86-.082L16.46,3.646a.352.352,0,0,1-.436-.163.278.278,0,0,1,.189-.377L19.6,1.951a1.815,1.815,0,0,1,1.485.142,1.339,1.339,0,0,1,.7,1.142V5.7a1.339,1.339,0,0,1-.7,1.141A1.787,1.787,0,0,1,20.189,7.076Z" transform="translate(-10.887 -1.854)"/>
      <path id="path-5" data-name="path" d="M10,7.076a1.783,1.783,0,0,1-.9-.239A1.337,1.337,0,0,1,8.4,5.7V3.234a1.339,1.339,0,0,1,.7-1.141,1.816,1.816,0,0,1,1.486-.142l3.388,1.155a.279.279,0,0,1,.189.377.353.353,0,0,1-.436.163L10.337,2.491a1.038,1.038,0,0,0-.86.083.765.765,0,0,0-.4.661V5.7a.766.766,0,0,0,.4.661,1.042,1.042,0,0,0,.861.083l3.388-1.155a.353.353,0,0,1,.436.163.278.278,0,0,1-.189.377L10.584,6.979A1.811,1.811,0,0,1,10,7.076Z" transform="translate(-8.399 -1.854)"/>
    </g>
  </g>
</svg>
