<svg xmlns="http://www.w3.org/2000/svg" viewBox="1921 959 22.197 17.016">
  <defs>
    <style>
      .cls-1 {
        opacity: 0.6;
      }
    </style>
  </defs>
  <g id="baby" class="cls-1" transform="translate(1921 955.149)">
    <g id="group" transform="translate(0 3.851)">
      <path id="path" d="M11.1,20.867a8.937,8.937,0,0,1-8.727-6.494,2.416,2.416,0,0,1,.045-4.831h.207A8.929,8.929,0,0,1,11.1,3.851a8.931,8.931,0,0,1,8.476,5.691h.207a2.416,2.416,0,0,1,.046,4.831A8.939,8.939,0,0,1,11.1,20.867ZM2.416,10.215a1.743,1.743,0,1,0,0,3.486h.221a.336.336,0,0,1,.328.264,8.239,8.239,0,0,0,8.133,6.23,8.239,8.239,0,0,0,8.134-6.23.337.337,0,0,1,.328-.264h.22a1.743,1.743,0,1,0,0-3.486h-.445a.336.336,0,0,1-.319-.229A8.243,8.243,0,0,0,11.1,4.524,8.243,8.243,0,0,0,3.179,9.985a.336.336,0,0,1-.319.229Z" transform="translate(0 -3.851)"/>
      <g id="group-2" data-name="group" transform="translate(13.104 8.591)">
        <circle id="ellipse" cx="0.813" cy="0.813" r="0.813"/>
      </g>
      <g id="group-3" data-name="group" transform="translate(7.777 8.591)">
        <circle id="ellipse-2" data-name="ellipse" cx="0.813" cy="0.813" r="0.813"/>
      </g>
      <path id="path-2" data-name="path" d="M15.2,23.7a4.528,4.528,0,0,1-2.377-.677l-.13-.08a.337.337,0,0,1,.351-.574l.132.081a3.842,3.842,0,0,0,4.05,0l.131-.081a.336.336,0,0,1,.353.572l-.132.081A4.527,4.527,0,0,1,15.2,23.7Z" transform="translate(-4.103 -9.896)"/>
    </g>
  </g>
</svg>
