<svg xmlns="http://www.w3.org/2000/svg" viewBox="613 2005.911 18.067 23.416">
  <defs>
    <style>
      .cls-1 {
        fill: #fd6f55;
      }
    </style>
  </defs>
  <g id="avatar" transform="translate(559.021 2005.911)">
    <path id="path" class="cls-1" d="M71.98,22.455a9.915,9.915,0,0,0-5.43-4.94V16.083c1.169-.064,3.374-.362,4.667-1.685a.674.674,0,0,0,.168-.639.667.667,0,0,0-.466-.471c-.02,0-1.724-.59-1.382-4.078a15.149,15.149,0,0,0-.069-3.974A6.044,6.044,0,0,0,68.15,2.16,3.524,3.524,0,0,0,65.425.986H65.3A4.16,4.16,0,0,0,62.542,0,5.677,5.677,0,0,0,60.49.406l-.03.01A5.079,5.079,0,0,0,58,2.175a9.416,9.416,0,0,0-1.442,5.931c.059,2.591-.367,3.86-.733,4.469-.3.5-.59.6-.664.619a.608.608,0,0,0-.585.327.677.677,0,0,0,.064.723,3.529,3.529,0,0,0,1.244,1.006,8.2,8.2,0,0,0,3.562.867V17.48a9.96,9.96,0,0,0-5.406,4.98.666.666,0,0,0,.6.956H71.381a.667.667,0,0,0,.565-.312A.686.686,0,0,0,71.98,22.455Zm-16.2-.382a8.578,8.578,0,0,1,4.534-3.488.669.669,0,0,0,.466-.634V15.459a.668.668,0,0,0-.674-.669,7.091,7.091,0,0,1-3.726-.8c.045-.045.094-.089.144-.139C57.5,12.838,57.963,10.9,57.9,8.076c-.129-5.207,2.086-6.05,3.027-6.407l.03-.01a4.526,4.526,0,0,1,1.576-.317,2.676,2.676,0,0,1,1.987.768.651.651,0,0,0,.575.238c.109-.01.218-.015.322-.015a2.205,2.205,0,0,1,1.734.733c.941,1.041,1.328,3.235,1.05,6.02-.277,2.809.6,4.217,1.358,4.9a7.933,7.933,0,0,1-3.567.778h-.1a.681.681,0,0,0-.486.188.667.667,0,0,0-.2.481V18a.665.665,0,0,0,.466.634,8.658,8.658,0,0,1,4.558,3.453H55.783Z" transform="translate(0)"/>
  </g>
</svg>
