<svg xmlns="http://www.w3.org/2000/svg" viewBox="2093 1254 17.745 23.428">
  <defs>
    <style>
      .cls-1 {
        fill: #fd6f55;
      }
    </style>
  </defs>
  <g id="check" transform="translate(2034.092 1254)">
    <g id="group" transform="translate(58.908)">
      <g id="group-2" data-name="group" transform="translate(0)">
        <path id="path" class="cls-1" d="M75.864,34.738H72.179l.249,1.151a1.318,1.318,0,0,1,.013.427h2.635v18.6H60.484v-18.6H63.12a1.329,1.329,0,0,1,.014-.429l.249-1.149H59.7a.788.788,0,0,0-.788.789V55.7a.789.789,0,0,0,.788.789H75.864a.789.789,0,0,0,.789-.789V35.527A.789.789,0,0,0,75.864,34.738Z" transform="translate(-58.908 -33.062)"/>
        <path id="path-2" data-name="path" class="cls-1" d="M233.681,152.949h-5.389a.789.789,0,1,0,0,1.577h5.389a.789.789,0,1,0,0-1.577Z" transform="translate(-219.37 -145.571)"/>
        <path id="path-3" data-name="path" class="cls-1" d="M233.681,253.254h-5.389a.789.789,0,0,0,0,1.578h5.389a.789.789,0,0,0,0-1.578Z" transform="translate(-219.37 -241.038)"/>
        <path id="path-4" data-name="path" class="cls-1" d="M114.024,113.894a.789.789,0,0,0-.095,1.112l1.151,1.364a.787.787,0,0,0,.6.28l.058,0a.788.788,0,0,0,.613-.372l2.07-3.351a.788.788,0,0,0-1.341-.829l-1.5,2.425-.449-.531A.787.787,0,0,0,114.024,113.894Z" transform="translate(-111.099 -106.331)"/>
        <path id="path-5" data-name="path" class="cls-1" d="M135.368,245.094a1.183,1.183,0,1,0,1.183,1.183A1.183,1.183,0,0,0,135.368,245.094Z" transform="translate(-130.554 -233.271)"/>
        <path id="path-6" data-name="path" class="cls-1" d="M233.681,351.359h-5.389a.789.789,0,1,0,0,1.577h5.389a.789.789,0,1,0,0-1.577Z" transform="translate(-219.37 -334.41)"/>
        <path id="path-7" data-name="path" class="cls-1" d="M135.368,343.2a1.183,1.183,0,1,0,1.183,1.183A1.183,1.183,0,0,0,135.368,343.2Z" transform="translate(-130.554 -326.644)"/>
        <path id="path-8" data-name="path" class="cls-1" d="M162.785,3.647h6.692a.541.541,0,0,0,.529-.656L169.453.427a.542.542,0,0,0-.53-.427H163.34a.542.542,0,0,0-.53.427l-.555,2.564a.547.547,0,0,0,.108.455A.54.54,0,0,0,162.785,3.647Z" transform="translate(-157.26)"/>
      </g>
    </g>
  </g>
</svg>
