<svg xmlns="http://www.w3.org/2000/svg" viewBox="-1448 1510 60 60">
  <defs>
    <style>
      .cls-1 {
        fill: #263c82;
      }
    </style>
  </defs>
  <g id="Group_614" data-name="Group 614" transform="translate(-1565 -166)">
    <path id="Path_155" data-name="Path 155" class="cls-1" d="M23.616,13.889c2.775,0,4.443,1.48,4.443,3.978,0,4.535-8.1,5.786-8.1,11.29a2.942,2.942,0,0,0,2.959,3.1c3.054,0,2.684-2.267,3.8-3.888,1.479-2.173,8.374-4.486,8.374-10.5,0-6.521-5.827-9.253-11.751-9.253-5.642,0-10.826,4.026-10.826,8.561a2.769,2.769,0,0,0,3.009,2.822C20.007,20,17.7,13.889,23.616,13.889Z" transform="translate(123.486 1680.267)"/>
    <path id="Path_157" data-name="Path 157" class="cls-1" d="M60,30A30,30,0,1,0,30,60,30.034,30.034,0,0,0,60,30ZM2.991,30A27.009,27.009,0,1,1,30,57.009,27.041,27.041,0,0,1,2.991,30Z" transform="translate(117 1676)"/>
  </g>
</svg>
