<svg xmlns="http://www.w3.org/2000/svg" viewBox="-1064 837 65.6 76">
  <defs>
    <style>
      .cls-1 {
        fill: #f6f6f6;
      }

      .cls-2 {
        fill: #263c82;
      }
    </style>
  </defs>
  <g id="Group_609" data-name="Group 609" transform="translate(-1565 -64)">
    <circle id="Ellipse_55" data-name="Ellipse 55" class="cls-1" cx="32.8" cy="32.8" r="32.8" transform="translate(501 901)"/>
    <path id="Path_1543" data-name="Path 1543" class="cls-2" d="M22.3,20.6h0a4.982,4.982,0,0,1-.8-1.9,4.06,4.06,0,0,1,1.3-3.9,5.179,5.179,0,0,0,1.4-3.5c0-2.3-1.6-4.4-4.5-5.7A2.767,2.767,0,0,0,20.2,4V2.6A2.647,2.647,0,0,0,17.6,0h-8A2.582,2.582,0,0,0,7,2.6V4.2a3.022,3.022,0,0,0,.5,1.6C4.7,7,3.1,9,3.1,11.4a5.179,5.179,0,0,0,1.4,3.5,4.3,4.3,0,0,1,1.3,3.9A6.084,6.084,0,0,1,5,20.7H5c-3.2,3.9-5,9.8-5,16a20.743,20.743,0,0,0,1.9,9.4,18.171,18.171,0,0,0,5.2,6.4,1.606,1.606,0,0,0,1.1.5H19a1.5,1.5,0,0,0,1.1-.4,19.594,19.594,0,0,0,5.2-6.4,21.329,21.329,0,0,0,1.9-9.4C27.3,30.5,25.5,24.6,22.3,20.6ZM13.6,47.4c-4.7,0-8.5-4.7-8.5-10.4,0-5.8,3.8-10.4,8.5-10.4s8.5,4.7,8.5,10.4C22.2,42.7,18.3,47.4,13.6,47.4Z" transform="translate(520 924)"/>
  </g>
</svg>
