<svg xmlns="http://www.w3.org/2000/svg" viewBox="-547 -49 192 40">
  <defs>
    <style>
      .cls-1 {
        fill: #32d3de;
        stroke: #24c0cb;
      }

      .cls-2, .cls-3 {
        fill: #fff;
      }

      .cls-2 {
        font-size: 14px;
        font-family: HelveticaNeue, Helvetica Neue;
      }

      .cls-4 {
        stroke: none;
      }

      .cls-5 {
        fill: none;
      }
    </style>
  </defs>
  <g id="Group_615" data-name="Group 615" transform="translate(-1565 -64)">
    <g id="carFrame" class="cls-1" transform="translate(1018 15)">
      <rect class="cls-4" width="192" height="40" rx="2"/>
      <rect class="cls-5" x="0.5" y="0.5" width="191" height="39" rx="1.5"/>
    </g>
    <text id="Ligamos_para_você" data-name="Ligamos para você" class="cls-2" transform="translate(1080 40)"><tspan x="0" y="0">Ligamos para você</tspan></text>
    <path id="phone" class="cls-3" d="M-2342.912-81.123a12.9,12.9,0,0,1-4.65-1.374,24.866,24.866,0,0,1-8.28-6.484,22.752,22.752,0,0,1-4.043-6.742,9.267,9.267,0,0,1-.676-3.921,3.867,3.867,0,0,1,1.147-2.457l1.8-1.813.011-.011a2.59,2.59,0,0,1,1.8-.777,2.5,2.5,0,0,1,1.77.777c.343.317.676.655.993.983.158.169.328.338.491.5l1.443,1.443a2.424,2.424,0,0,1,0,3.657c-.148.148-.3.3-.444.449-.391.4-.792.808-1.226,1.2a10.707,10.707,0,0,0,1.427,2.251,18.141,18.141,0,0,0,4.349,3.963c.153.1.333.185.523.28.132.069.269.137.407.211l1.67-1.664a2.545,2.545,0,0,1,1.807-.814,2.463,2.463,0,0,1,1.786.819l2.9,2.912a2.541,2.541,0,0,1,.814,1.813,2.636,2.636,0,0,1-.8,1.828c-.227.238-.46.465-.687.682a12.007,12.007,0,0,0-.925.956c-.005.011-.016.016-.021.027a3.982,3.982,0,0,1-3.049,1.31C-2342.685-81.112-2342.8-81.117-2342.912-81.123ZM-2356.6-102.9l-1.8,1.8a2.424,2.424,0,0,0-.729,1.569,7.544,7.544,0,0,0,.592,3.308,21.446,21.446,0,0,0,3.8,6.336,23.465,23.465,0,0,0,7.8,6.108,11.453,11.453,0,0,0,4.121,1.237c.079.005.164.005.243.005a2.548,2.548,0,0,0,1.987-.84,13.854,13.854,0,0,1,1.02-1.057c.227-.222.439-.423.645-.645a1.044,1.044,0,0,0-.005-1.654l-2.911-2.912-.011-.011a1.076,1.076,0,0,0-.761-.386,1.2,1.2,0,0,0-.8.4l-1.807,1.807a1.13,1.13,0,0,1-.8.365,1.144,1.144,0,0,1-.523-.132c-.021-.011-.042-.026-.064-.037-.153-.1-.333-.185-.523-.28a7.236,7.236,0,0,1-.65-.354,19.4,19.4,0,0,1-4.692-4.27l-.005-.005a11.584,11.584,0,0,1-1.707-2.785c0-.016-.01-.032-.016-.048a1.078,1.078,0,0,1,.275-1.2c.005-.011.016-.016.026-.026.46-.412.883-.835,1.326-1.289.153-.148.3-.3.455-.455a1.009,1.009,0,0,0,0-1.638l-1.442-1.443c-.169-.174-.339-.343-.5-.513-.322-.333-.629-.645-.951-.946l-.016-.016a1.131,1.131,0,0,0-.771-.37A1.2,1.2,0,0,0-2356.6-102.9Zm17.68,17.823,0,0S-2338.926-85.075-2338.923-85.075Zm-2.61-9.58a6.736,6.736,0,0,0-1.892-3.646,6.7,6.7,0,0,0-3.646-1.892.706.706,0,0,1-.576-.824.717.717,0,0,1,.824-.581,8.149,8.149,0,0,1,4.412,2.288,8.149,8.149,0,0,1,2.289,4.412.714.714,0,0,1-.587.824.938.938,0,0,1-.122.011A.709.709,0,0,1-2341.533-94.655Zm4.534-.217a11.97,11.97,0,0,0-3.366-6.494,12,12,0,0,0-6.494-3.366.716.716,0,0,1-.586-.824.711.711,0,0,1,.819-.581,13.407,13.407,0,0,1,7.266,3.768,13.41,13.41,0,0,1,3.768,7.266.7.7,0,0,1-.581.814.937.937,0,0,1-.122.011A.709.709,0,0,1-2337-94.872Z" transform="translate(3389.166 128.149)"/>
  </g>
</svg>
