<svg xmlns="http://www.w3.org/2000/svg" viewBox="-723 837 65.6 75.9">
  <defs>
    <style>
      .cls-1 {
        fill: #f6f6f6;
      }

      .cls-2 {
        fill: #263c82;
      }
    </style>
  </defs>
  <g id="Group_611" data-name="Group 611" transform="translate(-1565 -64)">
    <circle id="Ellipse_57" data-name="Ellipse 57" class="cls-1" cx="32.8" cy="32.8" r="32.8" transform="translate(842 901)"/>
    <path id="Path_1545" data-name="Path 1545" class="cls-2" d="M27.3,2.5A5.115,5.115,0,0,0,22.5,0H6.2A5.382,5.382,0,0,0,1.3,2.5,10.467,10.467,0,0,0,0,8.2a10.467,10.467,0,0,0,1.3,5.7,5.382,5.382,0,0,0,4.9,2.5H7.8l1.1,3.2a1.541,1.541,0,0,0,1.3.9h.3c-.1,1.6,0,3.3,0,4.9a29.85,29.85,0,0,1,0,3,56.827,56.827,0,0,1-1,7.6,70.6,70.6,0,0,0-1.1,9.1,8.073,8.073,0,0,0,2.2,6.1,5.294,5.294,0,0,0,3.7,1.7A5.119,5.119,0,0,0,18,51.2a8.477,8.477,0,0,0,2.2-6.1A56.744,56.744,0,0,0,19,36a56.827,56.827,0,0,1-1-7.6v-3a40.054,40.054,0,0,0,0-4.9h.3a1.424,1.424,0,0,0,1.3-.9l1.1-3.2h1.6a5.382,5.382,0,0,0,4.9-2.5,10.467,10.467,0,0,0,1.3-5.7A9.68,9.68,0,0,0,27.3,2.5ZM23.6,12.7H5.1a1.7,1.7,0,1,1,0-3.4H23.6A1.685,1.685,0,0,1,25.3,11,1.628,1.628,0,0,1,23.6,12.7Zm0-5.5H5.1a1.7,1.7,0,1,1,0-3.4H23.6a1.7,1.7,0,1,1,0,3.4Z" transform="translate(861 924)"/>
  </g>
</svg>
