<svg xmlns="http://www.w3.org/2000/svg" viewBox="-1202 837 65.6 75.733">
  <defs>
    <style>
      .cls-1 {
        fill: #f6f6f6;
      }

      .cls-2 {
        fill: #263c82;
      }
    </style>
  </defs>
  <g id="Group_608" data-name="Group 608" transform="translate(-1565 -64)">
    <circle id="Ellipse_60" data-name="Ellipse 60" class="cls-1" cx="32.8" cy="32.8" r="32.8" transform="translate(363 901)"/>
    <path id="Path_1548" data-name="Path 1548" class="cls-2" d="M28.833,3.711,25.417.309h0A1.014,1.014,0,0,0,24.7,0H7.569A1.018,1.018,0,0,0,6.553,1.016V2.489A1.031,1.031,0,0,0,7.569,3.519H9.557V7.908H6.42v2.754A9.417,9.417,0,0,0,0,19.571V52.733H24.946V19.571a9.411,9.411,0,0,0-6.7-9V7.908H15.109V3.519h8.526l2.68,2.68a1.022,1.022,0,0,0,1.443,0L28.8,5.154A1,1,0,0,0,28.833,3.711ZM21.838,30.276V49.317H3.122V30.276a2.416,2.416,0,0,1,2.415-2.415H19.409A2.41,2.41,0,0,1,21.838,30.276Z" transform="translate(383 924)"/>
  </g>
</svg>
