<svg xmlns="http://www.w3.org/2000/svg" viewBox="-1719.496 551.5 27.182 30.999">
  <defs>
    <style>
      .cls-1 {
        fill: #652f7c;
        stroke: #652f7c;
      }
    </style>
  </defs>
  <path id="security" class="cls-1" d="M-907.11-735.138a23.275,23.275,0,0,1-8.578-5.34,12.072,12.072,0,0,1-3.394-5.87,12.588,12.588,0,0,1-.324-2.676c-.025-2.333-.025-4.7-.019-6.987v-2.483a2.012,2.012,0,0,1,2.083-2.24,18.825,18.825,0,0,0,9.594-3.712A2.542,2.542,0,0,1-906.33-765a2.506,2.506,0,0,1,1.422.561,19.811,19.811,0,0,0,7.186,3.356c.605.131,1.235.2,1.9.281.225.025.455.05.68.081a2.007,2.007,0,0,1,1.89,2.115q.009,1.881.006,3.768v1.566l-.031,3.855c-.006.48-.019.9-.037,1.3a10.667,10.667,0,0,1-2.264,5.989,18.971,18.971,0,0,1-6.637,5.477c-.861.449-1.74.83-2.6,1.2l-.019.006c-.193.081-.393.162-.586.25a2.371,2.371,0,0,1-.936.193A2.2,2.2,0,0,1-907.11-735.138Zm.212-28.078a20.229,20.229,0,0,1-10.343,3.98.894.894,0,0,0-.555.162.916.916,0,0,0-.131.586V-756c0,2.283-.006,4.647.019,6.968a10.815,10.815,0,0,0,.287,2.358,10.722,10.722,0,0,0,2.988,5.153,21.913,21.913,0,0,0,8.041,4.991.7.7,0,0,0,.237.037.854.854,0,0,0,.337-.069c.2-.087.393-.168.593-.256l.019-.006c.83-.356,1.684-.724,2.489-1.148a17.567,17.567,0,0,0,6.132-5.04,9.216,9.216,0,0,0,1.977-5.165c.012-.387.025-.792.031-1.254l.031-3.868v-.044l.006-1.5v-3.762c0-.418-.143-.574-.58-.63-.225-.031-.443-.056-.668-.081a19.56,19.56,0,0,1-2.052-.306,21.309,21.309,0,0,1-7.723-3.587,1.419,1.419,0,0,0-.568-.293A1.375,1.375,0,0,0-906.9-763.216Zm-.187,19.987v-1.46h-1.952a.751.751,0,0,1-.749-.749.751.751,0,0,1,.749-.749h3.749a1.544,1.544,0,0,0,1.541-1.541,1.544,1.544,0,0,0-1.541-1.541h-2.09a3.042,3.042,0,0,1-3.038-3.038,3.042,3.042,0,0,1,3.038-3.038h.293v-1.435a.751.751,0,0,1,.749-.749.751.751,0,0,1,.749.749v1.435h1.884a.751.751,0,0,1,.749.749.751.751,0,0,1-.749.749h-3.681a1.544,1.544,0,0,0-1.541,1.541,1.544,1.544,0,0,0,1.541,1.541h2.09a3.038,3.038,0,0,1,3.038,3.038,3.041,3.041,0,0,1-2.994,3.038h-.337v1.46a.751.751,0,0,1-.749.749A.751.751,0,0,1-907.085-743.229Z" transform="translate(-799.572 1317)"/>
</svg>
