<svg xmlns="http://www.w3.org/2000/svg" viewBox="-1803 551 54.84 30">
  <defs>
    <style>
      .cls-1 {
        fill: #652f7c;
      }
    </style>
  </defs>
  <path id="ship" class="cls-1" d="M-378.332-661.523h-16.133A4.522,4.522,0,0,1-398.875-658a4.514,4.514,0,0,1-4.409-3.523h-4.1a1.351,1.351,0,0,1-1.346-1.346v-4.69h-5.239a1.35,1.35,0,0,1-1.346-1.346,1.35,1.35,0,0,1,1.346-1.346h6.6a1.351,1.351,0,0,1,1.346,1.346v4.7h2.659a1.289,1.289,0,0,1,.292.034,4.517,4.517,0,0,1,4.2-2.861,4.537,4.537,0,0,1,4.2,2.839.818.818,0,0,1,.168-.012h12.678v-21.1h-24.188v4.69a1.351,1.351,0,0,1-1.346,1.346h-6.6a1.35,1.35,0,0,1-1.346-1.346,1.35,1.35,0,0,1,1.346-1.346h5.239v-4.69A1.351,1.351,0,0,1-407.379-688H-380.5a1.35,1.35,0,0,1,1.346,1.346v3.052h5.643a7.951,7.951,0,0,1,5.936,2.491,10.2,10.2,0,0,1,2.412,7.056v11.186a1.35,1.35,0,0,1-1.346,1.346h-3.007A4.523,4.523,0,0,1-373.923-658,4.535,4.535,0,0,1-378.332-661.523Zm2.58-.987a1.829,1.829,0,0,0,1.829,1.829,1.844,1.844,0,0,0,1.829-1.829,1.829,1.829,0,0,0-1.829-1.829A1.829,1.829,0,0,0-375.752-662.51Zm-24.952,0a1.829,1.829,0,0,0,1.829,1.829,1.829,1.829,0,0,0,1.829-1.829,1.829,1.829,0,0,0-1.829-1.829A1.829,1.829,0,0,0-400.7-662.51Zm30.965-1.695h1.885v-9.839c0-4.3-2.11-6.866-5.643-6.866h-5.644v16.7h1.032a4.524,4.524,0,0,1,4.185-2.827A4.541,4.541,0,0,1-369.738-664.2Zm-27.139-6.125a1.347,1.347,0,0,1,0-1.907l1.156-1.234h-22.932A1.35,1.35,0,0,1-420-674.817a1.35,1.35,0,0,1,1.346-1.346h22.944l-1-1a1.347,1.347,0,0,1,0-1.907,1.347,1.347,0,0,1,1.907,0l3.3,3.3.012.012c.022.033.056.056.078.089s.022.034.033.057a.19.19,0,0,1,.045.056l.034.068c.011.023.023.033.033.056s.023.045.033.068.012.033.022.056.012.045.022.068.012.034.022.056.012.045.012.068.011.045.011.068.012.056.012.078a.106.106,0,0,1,.011.057,1.037,1.037,0,0,1,0,.269c0,.022-.011.033-.011.056s-.012.056-.012.078-.011.045-.011.068a.137.137,0,0,1-.012.067c-.011.011-.011.033-.022.056s-.011.045-.022.068-.011.033-.022.056-.022.045-.033.068-.022.034-.033.057l-.034.067a.207.207,0,0,0-.045.057c-.011.023-.022.033-.033.056s-.056.056-.078.09l-.012.011-3.467,3.467a1.368,1.368,0,0,1-.953.392A1.35,1.35,0,0,1-396.878-670.33Z" transform="translate(-1383 1239)"/>
</svg>
