<svg xmlns="http://www.w3.org/2000/svg" viewBox="-704 51 239 30">
  <defs>
    <style>
      .cls-1 {
        fill: #fff;
      }
    </style>
  </defs>
  <g id="Group_617" data-name="Group 617" transform="translate(-1565 -64)">
    <path id="path" class="cls-1" d="M79,23l5,5,5-5Z" transform="translate(1011 105)"/>
    <path id="user-3" class="cls-1" d="M30,15A15,15,0,1,0,4.869,26.05l-.014.013.487.41c.032.027.066.049.1.075.259.214.526.418.8.615.088.064.177.128.267.19q.437.3.9.572l.2.116c.334.19.676.37,1.025.535l.077.035a14.865,14.865,0,0,0,3.628,1.148l.1.018c.395.068.794.123,1.2.159l.148.011c.4.033.809.055,1.222.055s.812-.021,1.212-.053l.152-.011q.6-.055,1.188-.157l.1-.019a14.864,14.864,0,0,0,3.577-1.121l.125-.057q.5-.237.988-.511.12-.068.239-.138c.293-.173.582-.353.862-.545.1-.069.2-.141.3-.213.239-.172.475-.35.7-.536.051-.041.105-.076.155-.118l.5-.417-.015-.013A14.961,14.961,0,0,0,30,15ZM1.091,15A13.909,13.909,0,1,1,24.224,25.4a4.088,4.088,0,0,0-.487-.293L19.119,22.8a1.209,1.209,0,0,1-.672-1.087V20.1c.107-.132.22-.281.337-.446a11.115,11.115,0,0,0,1.427-2.794,1.98,1.98,0,0,0,1.137-1.794V13.129a1.985,1.985,0,0,0-.484-1.292V9.291a4.4,4.4,0,0,0-1.027-3.2C18.831,4.945,17.2,4.364,15,4.364s-3.831.581-4.837,1.728a4.4,4.4,0,0,0-1.027,3.2v2.546a1.987,1.987,0,0,0-.484,1.292v1.934A1.984,1.984,0,0,0,9.383,16.6a10.249,10.249,0,0,0,1.687,3.485v1.579a1.217,1.217,0,0,1-.634,1.068L6.124,25.084a3.942,3.942,0,0,0-.41.26A13.876,13.876,0,0,1,1.091,15ZM23.159,26.254c-.191.139-.385.273-.582.4-.091.059-.181.118-.273.175-.257.159-.519.311-.787.453l-.178.091a13.9,13.9,0,0,1-1.9.805l-.069.023q-.513.17-1.039.3h0c-.353.087-.711.16-1.071.219l-.029.005c-.339.055-.68.095-1.023.125l-.182.014c-.339.026-.679.042-1.021.042s-.691-.017-1.034-.043l-.178-.014c-.346-.031-.69-.071-1.031-.127l-.046-.008a13.857,13.857,0,0,1-2.122-.53l-.064-.022q-.515-.175-1.016-.389l-.007,0c-.315-.136-.625-.286-.93-.445-.04-.021-.08-.04-.119-.062-.279-.149-.551-.31-.82-.478L7.4,26.637c-.248-.162-.492-.331-.73-.509l-.073-.057.052-.029,4.313-2.353a2.307,2.307,0,0,0,1.2-2.026V19.7l-.125-.152A9.107,9.107,0,0,1,10.4,16.157l-.05-.216-.186-.121a.9.9,0,0,1-.419-.759V13.127a.891.891,0,0,1,.3-.667l.18-.163V9.26l0-.071a3.285,3.285,0,0,1,.761-2.378c.789-.9,2.14-1.355,4.016-1.355A5.153,5.153,0,0,1,19.007,6.8a3.34,3.34,0,0,1,.771,2.39l0,3.11.18.163a.892.892,0,0,1,.3.667v1.934a.911.911,0,0,1-.644.859L19.341,16l-.087.27a10.091,10.091,0,0,1-1.361,2.745c-.143.2-.282.381-.4.518l-.135.154v2.018a2.293,2.293,0,0,0,1.275,2.063l4.618,2.309.087.045C23.278,26.17,23.218,26.211,23.159,26.254Z" transform="translate(861 115)"/>
  </g>
</svg>
