<svg xmlns="http://www.w3.org/2000/svg" viewBox="-907 837 65.6 75.8">
  <defs>
    <style>
      .cls-1 {
        fill: #f6f6f6;
      }

      .cls-2 {
        fill: #263c82;
      }
    </style>
  </defs>
  <g id="Group_610" data-name="Group 610" transform="translate(-1565 -64)">
    <circle id="Ellipse_56" data-name="Ellipse 56" class="cls-1" cx="32.8" cy="32.8" r="32.8" transform="translate(658 901)"/>
    <path id="Path_1544" data-name="Path 1544" class="cls-2" d="M48.395,25.4a7,7,0,0,0-1.636-1.732V17.9a2.032,2.032,0,0,0-2.02-2.02H43.488a9.368,9.368,0,0,0-.192-2.309,8.825,8.825,0,0,0-2.6-4.618A8.677,8.677,0,0,0,37.234,7.12a7.541,7.541,0,0,1-1.347-.481,16.767,16.767,0,0,1-4.233-2.983C30.018,2.213,28.286.673,25.689.1c0-.1-.1-.1-.289-.1a2.345,2.345,0,0,0-2.02,1.155,2.271,2.271,0,0,0-.1,2.213,2.894,2.894,0,0,1,.481,1.924c-.577,1.155-4.233,1.636-5.965,1.924h0c-2.405.385-4.907.866-6.831,2.213a6.952,6.952,0,0,0-3.175,6.446H6.542a2.032,2.032,0,0,0-2.02,2.02v5.773A9.393,9.393,0,0,0,2.886,25.4,18.269,18.269,0,0,0,0,35.887,17.587,17.587,0,0,0,2.983,46.374,11.238,11.238,0,0,0,12.315,50.8H39.062a11.238,11.238,0,0,0,9.333-4.426,17.587,17.587,0,0,0,2.983-10.487A17.587,17.587,0,0,0,48.395,25.4ZM25.689,41.756c-7.6,0-13.758-3.56-13.758-7.986s6.158-7.986,13.758-7.986,13.758,3.56,13.758,7.986-6.158,7.986-13.758,7.986ZM39.639,15.875H11.834a.094.094,0,0,1-.1-.1c-.192-2.79,1.347-3.752,6.542-4.618,3.175-.481,7.408-1.058,8.948-4.041a3.92,3.92,0,0,0,.481-1.732,16.724,16.724,0,0,1,1.443,1.251,20.54,20.54,0,0,0,5.2,3.656c.673.289,1.251.481,1.828.673A4.053,4.053,0,0,1,38,11.834a5.273,5.273,0,0,1,1.636,4.041Zm0,0" transform="translate(665 926)"/>
  </g>
</svg>
