<svg xmlns="http://www.w3.org/2000/svg" viewBox="-1442 1126.486 48.488 45.746">
  <defs>
    <style>
      .cls-1 {
        fill: #263c82;
      }
    </style>
  </defs>
  <path id="Path_1555" data-name="Path 1555" class="cls-1" d="M47.487,8.027a4.6,4.6,0,0,0-3.562-1.668L14.1,6.209a4.562,4.562,0,0,0-2.371.665L10.222,1.518A2.025,2.025,0,0,0,8.278.038L1.543,0A1.539,1.539,0,0,0,0,1.53v.163A1.539,1.539,0,0,0,1.53,3.236l5.795.025,2.91,10.486,4,14.462a5.325,5.325,0,0,0,.891,10.486,5.092,5.092,0,0,0-.288,2.145,5.213,5.213,0,0,0,10.411-.364,5.541,5.541,0,0,0-.276-1.718l6.1.038a5.292,5.292,0,0,0-.276,2.32,5.215,5.215,0,1,0,5.13-5.795l-20.382-.1a1.863,1.863,0,0,1-1.869-1.769A1.814,1.814,0,0,1,15.5,31.57l24.308.125a4.509,4.509,0,0,0,4.39-3.4L48.34,12A4.478,4.478,0,0,0,47.487,8.027ZM30.805,23.668A1.51,1.51,0,0,1,29.3,25.173H18.89a1.51,1.51,0,0,1-1.505-1.505v-.5a1.51,1.51,0,0,1,1.505-1.505H29.3a1.51,1.51,0,0,1,1.505,1.505Zm8.78-5.732a1.51,1.51,0,0,1-1.505,1.505H18.89a1.51,1.51,0,0,1-1.505-1.505v-.5a1.51,1.51,0,0,1,1.505-1.505H38.08a1.51,1.51,0,0,1,1.505,1.505Zm5.017-5.77A1.51,1.51,0,0,1,43.1,13.672H18.89a1.51,1.51,0,0,1-1.505-1.505v-.5A1.51,1.51,0,0,1,18.89,10.16H43.1A1.51,1.51,0,0,1,44.6,11.665Z" transform="translate(-1442 1126.486)"/>
</svg>
