<svg xmlns="http://www.w3.org/2000/svg" viewBox="-559 837 65.6 75.5">
  <defs>
    <style>
      .cls-1 {
        fill: #f6f6f6;
      }

      .cls-2 {
        fill: #263c82;
      }
    </style>
  </defs>
  <g id="Group_612" data-name="Group 612" transform="translate(-1565 -64)">
    <circle id="Ellipse_58" data-name="Ellipse 58" class="cls-1" cx="32.8" cy="32.8" r="32.8" transform="translate(1006 901)"/>
    <path id="Path_1546" data-name="Path 1546" class="cls-2" d="M30.2.8A2.5,2.5,0,0,0,28.4,0H2.4A2.5,2.5,0,0,0,.6.8,2.61,2.61,0,0,0,0,2.6L2.8,39.7a2.721,2.721,0,0,0,2.7,2.5H9.3v3.5H7.8a1.538,1.538,0,0,0-1.5,1.5V51a1.538,1.538,0,0,0,1.5,1.5H23A1.538,1.538,0,0,0,24.5,51V47.1A1.538,1.538,0,0,0,23,45.6H21.6V42.1h3.8a2.721,2.721,0,0,0,2.7-2.5L30.9,2.5A2.609,2.609,0,0,0,30.2.8ZM24.4,15.5a1.4,1.4,0,0,1-1.3,1.3H7.8a1.324,1.324,0,0,1-1.3-1.3L6,9A1.24,1.24,0,0,1,7.2,7.7H23.7A1.24,1.24,0,0,1,24.9,9Z" transform="translate(1023 924)"/>
  </g>
</svg>
