<svg xmlns="http://www.w3.org/2000/svg" viewBox="-420 837 65.6 75.266">
  <defs>
    <style>
      .cls-1 {
        fill: #f6f6f6;
      }

      .cls-2 {
        fill: #263c82;
      }
    </style>
  </defs>
  <g id="Group_613" data-name="Group 613" transform="translate(-1565 -64)">
    <circle id="Ellipse_59" data-name="Ellipse 59" class="cls-1" cx="32.8" cy="32.8" r="32.8" transform="translate(1145 901)"/>
    <path id="Path_1547" data-name="Path 1547" class="cls-2" d="M34.111,54c2.785-3.133,4.227-7.409,4.227-12.481,0-7.26-4.923-14.37-7.856-17.951A45.777,45.777,0,0,0,25.757,18.6V12.68a2.939,2.939,0,0,0-2.934-2.934H21.332V5.718c2.436-.05,6.365-.1,7.856.05a29.2,29.2,0,0,1,4.823,1.293,1.692,1.692,0,0,0,.7.1A2.223,2.223,0,0,0,36.8,5.669a2.181,2.181,0,0,0-1.343-2.785,33.836,33.836,0,0,0-5.768-1.492c-1.144-.1-3.282-.149-5.271-.1A2.2,2.2,0,0,0,22.426,0H10.442A2.207,2.207,0,0,0,8.254,2.188V3.481a2.207,2.207,0,0,0,2.188,2.188h6.564V9.746H15.514A2.939,2.939,0,0,0,12.58,12.68v5.867a42.286,42.286,0,0,0-4.774,5.022C4.923,27.15,0,34.21,0,41.52,0,46.592,1.442,50.818,4.227,54a2.91,2.91,0,0,0-.1.646v3.431a1.994,1.994,0,0,0,.646,1.541,2.182,2.182,0,0,0,1.541.646H32.122a2.207,2.207,0,0,0,2.188-2.188V54.647A3.216,3.216,0,0,0,34.111,54Zm-14.917-.547C13.575,53.454,9,48.233,9,41.768s4.575-11.685,10.193-11.685S29.387,35.3,29.387,41.768,24.812,53.454,19.194,53.454Z" transform="translate(1159 916)"/>
  </g>
</svg>
