<?xml version="1.0" encoding="utf-8"?>
<!-- Generator: Adobe Illustrator 16.0.0, SVG Export Plug-In . SVG Version: 6.00 Build 0)  -->
<!DOCTYPE svg PUBLIC "-//W3C//DTD SVG 1.1//EN" "http://www.w3.org/Graphics/SVG/1.1/DTD/svg11.dtd">
<svg version="1.1" id="Camada_1" xmlns="http://www.w3.org/2000/svg" xmlns:xlink="http://www.w3.org/1999/xlink" x="0px" y="0px"
	 width="133px" height="65px" viewBox="0 0 133 65" enable-background="new 0 0 133 65" xml:space="preserve">
<g>
	<path d="M129.137,13.154l2.63-0.749c-1.983-8.075-9.381-11.001-15.85-11.001c-8.871,0-15.82,6.375-15.82,14.514
		c0,6.78,4.633,11.889,12.101,13.336l5.512,1.036c0.965,0.187,3.212,0.827,3.212,2.729c0,2.119-2.231,2.875-4.321,2.875
		c-5.466,0-6.692-3.529-6.959-5.402l-2.648,0.753c0.664,3.732,3.466,7.419,9.607,7.419c4.224,0,7.06-2.27,7.06-5.646
		c0-2.712-2.083-4.8-5.443-5.451l-5.512-1.036c-6.182-1.197-9.872-5.166-9.872-10.614c0-6.584,5.747-11.743,13.085-11.743
		C125.733,4.174,128.418,10.312,129.137,13.154L129.137,13.154z M101.445,32.824l-2.653,0.756
		c1.195,6.721,6.956,13.144,17.694,13.144c10.572,0,16.276-7.36,16.276-14.283c0-6.927-4.897-12.148-12.778-13.625l-5.412-1.038
		c-2.862-0.532-2.862-2-2.862-2.553c0-1.469,1.553-2.991,4.151-2.991c3.581,0,4.785,1.977,5.187,3.223l2.639-0.751
		c-0.806-2.613-3.196-5.241-7.825-5.241c-4.313,0-6.889,2.928-6.889,5.76c0,1.616,0.663,4.452,5.096,5.275l5.412,1.038
		c6.603,1.238,10.545,5.313,10.545,10.902c0,7.478-6.976,11.511-13.539,11.511C106.017,43.952,102.179,37.261,101.445,32.824
		L101.445,32.824z M89.393,45.556h2.921L76.431,1.834h-12.31L48.024,45.556h2.926l5.962-16.288h6.328h13.651h6.617L89.393,45.556
		L89.393,45.556z M67.119,26.696l2.997-8.539l2.929,8.539H67.119L67.119,26.696z M82.58,26.696h-6.569L70.146,9.594l-6.003,17.102
		h-6.289l8.16-22.289h8.515L82.58,26.696L82.58,26.696z M22.809,43.952c-11.34,0-19.571-8.327-19.571-19.803
		c0-11.388,8.365-19.976,19.458-19.976c13.67,0,16.859,10.193,17.413,12.558l2.631-0.75C41.116,9.194,34.941,1.403,22.695,1.403
		C10.042,1.403,0.5,11.182,0.5,24.149c0,13.081,9.383,22.574,22.309,22.574c12.181,0,18.512-7.834,20.355-14.781l-2.634-0.75
		C38.956,37.181,33.453,43.952,22.809,43.952L22.809,43.952z M12.57,24.149c0-7.632,5.249-11.109,10.125-11.109
		c6.465,0,8.352,4.281,8.863,6.125l2.633-0.75c-1.105-4.035-4.64-8.146-11.496-8.146c-6.391,0-12.863,4.767-12.863,13.879
		c0,8.848,6.53,13.477,12.977,13.477c6.741,0,10.436-4.107,11.739-8.138l-2.638-0.75c-0.66,1.937-2.815,6.119-9.102,6.119
		C17.72,34.856,12.57,31.178,12.57,24.149L12.57,24.149z M61.26,35.269l-3.8,10.287h2.908l2.816-7.716h13.661l2.788,7.716h2.908
		l-3.761-10.287H61.26L61.26,35.269z"/>
	<path d="M3.58,64.142c0,0.107,0.086,0.204,0.204,0.204h0.99c0.107,0,0.204-0.097,0.204-0.204v-2.527h1.345
		c1.312,0,2.398-1.086,2.398-2.421c0-1.301-1.086-2.377-2.409-2.377H3.784c-0.118,0-0.204,0.098-0.204,0.205V64.142L3.58,64.142z
		 M4.978,60.302V58.14h1.291c0.603,0,1.064,0.452,1.064,1.044c0,0.635-0.462,1.118-1.064,1.118H4.978L4.978,60.302z M17.228,64.142
		c0,0.107,0.086,0.204,0.205,0.204h3.937c0.117,0,0.204-0.097,0.204-0.204V63.26c0-0.108-0.086-0.204-0.204-0.204h-2.743v-6.034
		c0-0.107-0.097-0.205-0.205-0.205h-0.989c-0.119,0-0.205,0.098-0.205,0.205V64.142L17.228,64.142z M29.725,61.581
		c0,1.636,1.302,2.872,2.99,2.872c1.7,0,3.001-1.236,3.001-2.872v-4.56c0-0.107-0.098-0.205-0.205-0.205h-1.022
		c-0.118,0-0.204,0.098-0.204,0.205v4.495c0,0.903-0.634,1.539-1.57,1.539c-0.936,0-1.56-0.636-1.56-1.549v-4.485
		c0-0.107-0.086-0.205-0.204-0.205H29.93c-0.108,0-0.205,0.098-0.205,0.205V61.581L29.725,61.581z M46.836,64.453
		c1.516,0,2.474-1.022,2.474-2.13c0-1.387-1.204-2.011-2.248-2.43c-0.871-0.355-1.269-0.7-1.269-1.205
		c0-0.408,0.333-0.753,0.946-0.753c0.593,0,1.033,0.302,1.495,0.592c0.13,0.086,0.291,0,0.377-0.13l0.409-0.613
		c0.075-0.106,0.043-0.289-0.065-0.354c-0.215-0.16-1.054-0.72-2.151-0.72c-1.71,0-2.419,1.107-2.419,2.064
		c0,1.269,1.011,1.914,2.021,2.322c0.904,0.366,1.366,0.743,1.366,1.291c0,0.464-0.419,0.829-0.979,0.829
		c-0.699,0-1.183-0.334-1.624-0.668c-0.096-0.074-0.279-0.074-0.366,0.076l-0.387,0.667c-0.097,0.171-0.054,0.236,0.053,0.322
		C44.782,63.884,45.481,64.453,46.836,64.453L46.836,64.453z M68.745,64.302c0.022,0.087,0.109,0.151,0.195,0.151h0.173
		c0.106,0,0.149-0.054,0.182-0.118l1.903-4.872h0.054l1.927,4.872c0.021,0.064,0.084,0.118,0.182,0.118h0.172
		c0.086,0,0.172-0.064,0.193-0.151l2.033-7.228c0.043-0.149-0.044-0.258-0.193-0.258h-0.99c-0.086,0-0.172,0.075-0.193,0.152
		l-1.098,4.289h-0.042l-1.722-4.431c-0.021-0.064-0.074-0.117-0.183-0.117h-0.193c-0.107,0-0.162,0.053-0.184,0.117l-1.709,4.431
		h-0.044l-1.119-4.289c-0.021-0.077-0.106-0.152-0.192-0.152h-0.989c-0.15,0-0.237,0.108-0.193,0.258L68.745,64.302L68.745,64.302z
		 M83.135,64.346h0.938c0.172,0,0.269-0.107,0.312-0.215l0.527-1.161h3.215l0.527,1.161c0.075,0.15,0.151,0.215,0.313,0.215h0.936
		c0.161,0,0.247-0.14,0.183-0.28l-3.313-7.238c-0.031-0.064-0.075-0.117-0.182-0.117h-0.107c-0.098,0-0.15,0.053-0.184,0.117
		l-3.344,7.238C82.889,64.206,82.976,64.346,83.135,64.346L83.135,64.346z M85.438,61.774l1.054-2.365h0.032l1.075,2.365H85.438
		L85.438,61.774z M99.075,64.142c0,0.107,0.097,0.204,0.204,0.204h1c0.107,0,0.205-0.097,0.205-0.204v-6.035h1.646
		c0.118,0,0.204-0.095,0.204-0.203v-0.882c0-0.107-0.086-0.205-0.204-0.205h-4.7c-0.119,0-0.206,0.098-0.206,0.205v0.882
		c0,0.108,0.087,0.203,0.206,0.203h1.646V64.142L99.075,64.142z M110.841,64.142c0,0.107,0.086,0.204,0.204,0.204h4.378
		c0.119,0,0.203-0.097,0.203-0.204V63.26c0-0.108-0.084-0.204-0.203-0.204h-3.184v-1.882h2.656c0.107,0,0.205-0.087,0.205-0.205
		v-0.894c0-0.106-0.098-0.204-0.205-0.204h-2.656v-1.765h3.184c0.119,0,0.203-0.095,0.203-0.203v-0.882
		c0-0.107-0.084-0.205-0.203-0.205h-4.378c-0.118,0-0.204,0.098-0.204,0.205V64.142L110.841,64.142z M124.349,64.142
		c0,0.107,0.087,0.204,0.205,0.204h0.989c0.107,0,0.204-0.097,0.204-0.204v-2.744h1.193l1.431,2.852
		c0.022,0.042,0.075,0.097,0.171,0.097h1.131c0.184,0,0.258-0.172,0.184-0.312l-1.474-2.731c0.935-0.377,1.591-1.184,1.591-2.174
		c0-1.279-1.054-2.313-2.344-2.313h-3.076c-0.118,0-0.205,0.098-0.205,0.205V64.142L124.349,64.142z M125.758,60.248v-2.142h1.752
		c0.57,0,1.065,0.475,1.065,1.044c0,0.603-0.495,1.098-1.065,1.098H125.758L125.758,60.248z"/>
</g>
</svg>
