<svg xmlns="http://www.w3.org/2000/svg" viewBox="-1002.226 1296.945 37.156 35.055">
  <defs>
    <style>
      .cls-1 {
        fill: #fff;
      }
    </style>
  </defs>
  <path id="Path_1556" data-name="Path 1556" class="cls-1" d="M36.389,6.151a3.523,3.523,0,0,0-2.73-1.278L10.8,4.758a3.5,3.5,0,0,0-1.817.509l-1.153-4.1A1.551,1.551,0,0,0,6.344.029L1.182,0A1.179,1.179,0,0,0,0,1.173V1.3A1.179,1.179,0,0,0,1.173,2.48L5.613,2.5l2.23,8.035,3.066,11.082a4.081,4.081,0,0,0,.682,8.035A3.9,3.9,0,0,0,11.37,31.3a3.995,3.995,0,0,0,7.978-.279,4.246,4.246,0,0,0-.211-1.317l4.671.029a4.055,4.055,0,0,0-.211,1.778,4,4,0,1,0,3.931-4.441l-15.619-.077a1.427,1.427,0,0,1-1.432-1.355,1.39,1.39,0,0,1,1.4-1.442l18.627.1a3.455,3.455,0,0,0,3.364-2.6L37.043,9.2A3.432,3.432,0,0,0,36.389,6.151ZM27.527,29.344a1.865,1.865,0,1,1-1.865,1.865A1.866,1.866,0,0,1,27.527,29.344Zm-12.034,0a1.865,1.865,0,1,1-1.865,1.865A1.866,1.866,0,0,1,15.494,29.344Zm2.5-23.212A7.251,7.251,0,0,1,25.2,13.495h2.528l-5.056,4.95-4.806-4.95h2.441S21.616,8.641,17.993,6.132Zm14.36,15.619c0,.634-.519.961-1.153.961H14.379c-.634,0-1.153-.231-1.153-.865V19.915c0,.634.519.865,1.153.865H31.2c.634,0,1.153-.327,1.153-.961Z" transform="translate(-1002.226 1296.945)"/>
</svg>
