<svg xmlns="http://www.w3.org/2000/svg" viewBox="-1483.844 154.5 237.844 15">
  <defs>
    <style>
      .cls-1 {
        fill: #fff;
      }
    </style>
  </defs>
  <g id="Group_618" data-name="Group 618" transform="translate(-1565 -166)">
    <path id="path" class="cls-1" d="M79,23l5,5,5-5Z" transform="translate(230 303)"/>
    <path id="Path_231" data-name="Path 231" class="cls-1" d="M451.067-16.03a1.875,1.875,0,0,1-1.875,1.875h-11.25a1.876,1.876,0,0,1-1.875-1.875,1.876,1.876,0,0,1,1.875-1.875h11.25a1.875,1.875,0,0,1,1.875,1.875" transform="translate(-354.911 338.406)"/>
    <path id="Path_232" data-name="Path 232" class="cls-1" d="M451.067-12.956a1.874,1.874,0,0,1-1.875,1.873h-11.25a1.874,1.874,0,0,1-1.875-1.873,1.876,1.876,0,0,1,1.875-1.875h11.25a1.875,1.875,0,0,1,1.875,1.875" transform="translate(-354.911 340.956)"/>
    <path id="Path_233" data-name="Path 233" class="cls-1" d="M451.067-9.882a1.875,1.875,0,0,1-1.875,1.875h-11.25a1.876,1.876,0,0,1-1.875-1.875,1.876,1.876,0,0,1,1.875-1.875h11.25a1.875,1.875,0,0,1,1.875,1.875" transform="translate(-354.911 343.506)"/>
  </g>
</svg>
