<svg xmlns="http://www.w3.org/2000/svg" viewBox="-1876 553.939 55.797 31.061">
  <defs>
    <style>
      .cls-1 {
        fill: #652f7c;
      }
    </style>
  </defs>
  <path id="credit-card" class="cls-1" d="M3.6,31.061a3.6,3.6,0,0,1-3.6-3.6V8.5A3.6,3.6,0,0,1,3.6,4.9h9.964V3.6a3.6,3.6,0,0,1,3.6-3.6H52.2a3.6,3.6,0,0,1,3.6,3.6V22.56a3.6,3.6,0,0,1-3.6,3.6H42.232v1.3a3.6,3.6,0,0,1-3.6,3.6ZM2.223,8.5v18.96A1.379,1.379,0,0,0,3.6,28.839H38.632a1.379,1.379,0,0,0,1.377-1.377h0V8.5a1.379,1.379,0,0,0-1.377-1.377H3.6A1.379,1.379,0,0,0,2.223,8.5ZM42.232,23.937H52.2a1.379,1.379,0,0,0,1.377-1.377V20.8H42.232Zm0-5.357H53.574V15.331H42.232ZM15.787,3.6V4.9H38.632a3.6,3.6,0,0,1,3.6,3.6v4.607H53.574V3.6A1.379,1.379,0,0,0,52.2,2.223H17.165A1.379,1.379,0,0,0,15.787,3.6ZM36.111,26.16a1.111,1.111,0,1,1,0-2.223h.165a1.111,1.111,0,0,1,0,2.223Zm-5.308,0a1.111,1.111,0,0,1,0-2.223h2a1.111,1.111,0,0,1,0,2.223Zm-8.344,0a1.111,1.111,0,1,1,0-2.223H26.94a1.111,1.111,0,0,1,0,2.223Zm-8.387,0a1.111,1.111,0,0,1,0-2.223h4.481a1.111,1.111,0,0,1,0,2.223Zm-8.344,0a1.111,1.111,0,1,1,0-2.223h4.481a1.111,1.111,0,0,1,0,2.223Zm1.339-9.575A2.568,2.568,0,0,1,4.5,14.021V11.912A2.568,2.568,0,0,1,7.067,9.347H9.176a2.568,2.568,0,0,1,2.565,2.565v2.109a2.568,2.568,0,0,1-2.565,2.565Zm-.342-4.674V14.02a.342.342,0,0,0,.342.342H9.176a.342.342,0,0,0,.342-.342V11.912a.342.342,0,0,0-.342-.342H7.067A.342.342,0,0,0,6.725,11.912Z" transform="translate(-1876 553.939)"/>
</svg>
