<svg xmlns="http://www.w3.org/2000/svg" viewBox="-1008 2778 191 40">
  <defs>
    <style>
      .cls-1 {
        fill: #52b74a;
      }

      .cls-2, .cls-3 {
        fill: #fff;
      }

      .cls-3 {
        font-size: 14px;
        font-family: HelveticaNeue, Helvetica Neue;
      }
    </style>
  </defs>
  <g id="Group_607" data-name="Group 607" transform="translate(-1565 -166)">
    <rect id="Rectangle_224" data-name="Rectangle 224" class="cls-1" width="191" height="40" rx="3" transform="translate(557 2944)"/>
    <path id="security" class="cls-2" d="M-907.11-735.137a23.275,23.275,0,0,1-8.578-5.34,12.071,12.071,0,0,1-3.394-5.87,12.588,12.588,0,0,1-.324-2.676c-.025-2.333-.025-4.7-.019-6.987v-2.483a2.012,2.012,0,0,1,2.084-2.24,18.825,18.825,0,0,0,9.595-3.712A2.542,2.542,0,0,1-906.33-765a2.507,2.507,0,0,1,1.422.561,19.812,19.812,0,0,0,7.187,3.356c.605.131,1.235.2,1.9.281.225.025.455.05.68.081a2.007,2.007,0,0,1,1.89,2.115q.009,1.881.006,3.768v1.566l-.031,3.855c-.006.48-.019.9-.037,1.3a10.668,10.668,0,0,1-2.265,5.989,18.972,18.972,0,0,1-6.638,5.477c-.861.449-1.74.83-2.6,1.2l-.019.006c-.193.081-.393.162-.586.25a2.371,2.371,0,0,1-.936.193A2.2,2.2,0,0,1-907.11-735.137Zm.212-28.079a20.229,20.229,0,0,1-10.343,3.98.894.894,0,0,0-.555.162.916.916,0,0,0-.131.586V-756c0,2.283-.006,4.648.019,6.968a10.815,10.815,0,0,0,.287,2.358,10.722,10.722,0,0,0,2.988,5.153,21.914,21.914,0,0,0,8.041,4.991.7.7,0,0,0,.237.037.854.854,0,0,0,.337-.069c.2-.087.393-.168.593-.256l.019-.006c.83-.356,1.684-.724,2.489-1.148a17.567,17.567,0,0,0,6.132-5.041,9.216,9.216,0,0,0,1.978-5.165c.012-.387.025-.792.031-1.254l.031-3.868v-.044l.006-1.5v-3.762c0-.418-.143-.574-.58-.63-.225-.031-.443-.056-.668-.081a19.559,19.559,0,0,1-2.052-.306,21.31,21.31,0,0,1-7.723-3.587,1.419,1.419,0,0,0-.568-.293A1.375,1.375,0,0,0-906.9-763.216Zm-.187,19.988v-1.46h-1.953a.751.751,0,0,1-.749-.749.751.751,0,0,1,.749-.749h3.749a1.544,1.544,0,0,0,1.541-1.541,1.544,1.544,0,0,0-1.541-1.541h-2.09a3.042,3.042,0,0,1-3.038-3.038,3.042,3.042,0,0,1,3.038-3.038h.293v-1.435a.751.751,0,0,1,.749-.749.751.751,0,0,1,.749.749v1.435h1.884a.751.751,0,0,1,.749.749.751.751,0,0,1-.749.749h-3.681a1.544,1.544,0,0,0-1.541,1.541,1.544,1.544,0,0,0,1.541,1.541h2.09a3.038,3.038,0,0,1,3.038,3.038,3.041,3.041,0,0,1-2.994,3.038h-.337v1.46a.751.751,0,0,1-.749.749A.751.751,0,0,1-907.085-743.228Z" transform="translate(1501.427 3714)"/>
    <text id="Compra_segura" data-name="Compra segura" class="cls-3" transform="translate(626 2969)"><tspan x="0" y="0">Compra segura</tspan></text>
  </g>
</svg>
