<svg xmlns="http://www.w3.org/2000/svg" viewBox="-1438 2005 48 60">
  <defs>
    <style>
      .cls-1 {
        fill: #263c82;
      }
    </style>
  </defs>
  <path id="protocola" class="cls-1" d="M-1276-2421v-5h-5v-55h43v14.586l5,5V-2421Zm2-5v3h39v-37h-14v-14h-25Zm-5-2h3v-48h28.414l7.586,7.586V-2479h-39Zm32-34h10.587l-1.587-1.587-9-9Zm-20,32a1,1,0,0,1-1-1,1,1,0,0,1,1-1h25a1,1,0,0,1,1,1,1,1,0,0,1-1,1Zm0-8a1,1,0,0,1-1-1,1,1,0,0,1,1-1h25a1,1,0,0,1,1,1,1,1,0,0,1-1,1Zm0-8a1,1,0,0,1-1-1,1,1,0,0,1,1-1h25a1,1,0,0,1,1,1,1,1,0,0,1-1,1Zm0-8a1,1,0,0,1-1-1,1,1,0,0,1,1-1h25a1,1,0,0,1,1,1,1,1,0,0,1-1,1Zm0-8a1,1,0,0,1-1-1,1,1,0,0,1,1-1h10a1,1,0,0,1,1,1,1,1,0,0,1-1,1Z" transform="translate(-157 4486)"/>
</svg>
